<?xml version="1.0" encoding="UTF-8" standalone="no"?><!DOCTYPE svg PUBLIC "-//W3C//DTD SVG 1.1//EN" "http://www.w3.org/Graphics/SVG/1.1/DTD/svg11.dtd"><svg width="100%" height="100%" viewBox="0 0 630 880" version="1.1" xmlns="http://www.w3.org/2000/svg" xmlns:xlink="http://www.w3.org/1999/xlink" xml:space="preserve" xmlns:serif="http://www.serif.com/" style="fill-rule:evenodd;clip-rule:evenodd;stroke-linejoin:round;stroke-miterlimit:2;"><path d="M619.688,62.479c-0,-26.533 -21.542,-48.074 -48.075,-48.074l-513.226,-0c-26.533,-0 -48.075,21.541 -48.075,48.074l0.001,755.042c-0,26.533 21.541,48.074 48.074,48.074l513.226,0c26.533,0 48.075,-21.541 48.075,-48.074l-0,-755.042Z" style="fill:#fff;"/><g id="_10" serif:id="10"><path d="M133.323,202.701l-93.83,0l0,-21.758l35.793,0l-0,-111.004l-35.793,0l0,-21.758l58.846,0l-0,132.762l34.984,0l-0,21.758Z" style="fill-rule:nonzero;"/><path d="M152.129,152.731l0,-54.764c0,-14.26 5.393,-26.552 16.178,-36.878c10.785,-10.326 23.929,-15.489 39.432,-15.489c15.504,-0 28.648,5.163 39.433,15.489c10.785,10.326 16.178,22.618 16.178,36.878l-0,54.764c-0,14.26 -5.393,26.645 -16.178,37.155c-10.785,10.51 -23.929,15.766 -39.433,15.766c-15.503,-0 -28.647,-5.256 -39.432,-15.766c-10.785,-10.51 -16.178,-22.895 -16.178,-37.155Zm23.458,-54.764l-0,54.764c-0,8.359 3.134,15.643 9.403,21.851c6.269,6.207 13.852,9.311 22.749,9.311c8.898,0 16.481,-3.134 22.75,-9.404c6.269,-6.269 9.403,-13.522 9.403,-21.758l0,-54.764c0,-8.236 -3.134,-15.366 -9.403,-21.389c-6.269,-6.024 -13.852,-9.036 -22.75,-9.036c-8.897,0 -16.48,3.012 -22.749,9.036c-6.269,6.023 -9.403,13.153 -9.403,21.389Z" style="fill-rule:nonzero;"/><path id="A" d="M496.677,677.299l93.83,-0l-0,21.758l-35.793,-0l0,111.004l35.793,-0l-0,21.758l-58.846,-0l0,-132.762l-34.984,-0l0,-21.758Z" style="fill-rule:nonzero;"/><path d="M477.871,727.269l-0,54.764c-0,14.26 -5.393,26.552 -16.178,36.878c-10.785,10.326 -23.929,15.489 -39.432,15.489c-15.504,0 -28.648,-5.163 -39.433,-15.489c-10.785,-10.326 -16.178,-22.618 -16.178,-36.878l0,-54.764c0,-14.26 5.393,-26.645 16.178,-37.155c10.785,-10.51 23.929,-15.766 39.433,-15.766c15.503,0 28.647,5.256 39.432,15.766c10.785,10.51 16.178,22.895 16.178,37.155Zm-23.458,54.764l0,-54.764c0,-8.359 -3.134,-15.643 -9.403,-21.851c-6.269,-6.207 -13.852,-9.311 -22.749,-9.311c-8.898,-0 -16.481,3.134 -22.75,9.404c-6.269,6.269 -9.403,13.522 -9.403,21.758l-0,54.764c-0,8.236 3.134,15.366 9.403,21.389c6.269,6.024 13.852,9.036 22.75,9.036c8.897,-0 16.48,-3.012 22.749,-9.036c6.269,-6.023 9.403,-13.153 9.403,-21.389Z" style="fill-rule:nonzero;"/><g><g><circle cx="151.421" cy="247.358" r="23.439"/><circle cx="125.638" cy="287.204" r="23.439"/><circle cx="177.205" cy="287.204" r="23.439"/><path d="M151.421,266.39l13.619,0l-2.486,2.044l2.915,-1.521l-9.36,30.839c-5.025,13.281 -0.014,21.006 8.204,26.955l-25.783,0c8.218,-5.949 13.229,-13.674 8.204,-26.955l-9.361,-30.839l2.916,1.521l-2.486,-2.044l13.618,0"/></g><g><circle cx="478.579" cy="632.655" r="23.439"/><circle cx="504.362" cy="592.808" r="23.439"/><circle cx="452.795" cy="592.808" r="23.439"/><path d="M478.579,613.623l-13.619,-0l2.486,-2.044l-2.915,1.521l9.36,-30.839c5.025,-13.281 0.014,-21.006 -8.204,-26.955l25.783,-0c-8.218,5.949 -13.229,13.674 -8.204,26.955l9.361,30.839l-2.916,-1.521l2.486,2.044l-13.618,-0"/></g><g><circle cx="315" cy="381.136" r="56.442"/><circle cx="252.914" cy="477.087" r="56.442"/><circle cx="377.086" cy="477.087" r="56.442"/><path d="M315,426.966l32.793,0l-5.985,4.922l7.02,-3.663l-22.54,74.261c-12.101,31.981 -0.035,50.582 19.755,64.908l-62.086,0c19.79,-14.326 31.856,-32.927 19.755,-64.908l-22.54,-74.261l7.02,3.663l-5.985,-4.922l32.793,0"/></g></g></g></svg>