<?xml version="1.0" encoding="UTF-8" standalone="no"?><!DOCTYPE svg PUBLIC "-//W3C//DTD SVG 1.1//EN" "http://www.w3.org/Graphics/SVG/1.1/DTD/svg11.dtd"><svg width="100%" height="100%" viewBox="0 0 630 880" version="1.1" xmlns="http://www.w3.org/2000/svg" xmlns:xlink="http://www.w3.org/1999/xlink" xml:space="preserve" xmlns:serif="http://www.serif.com/" style="fill-rule:evenodd;clip-rule:evenodd;stroke-linejoin:round;stroke-miterlimit:2;"><path d="M619.688,62.479c-0,-26.533 -21.542,-48.074 -48.075,-48.074l-513.226,-0c-26.533,-0 -48.075,21.541 -48.075,48.074l0.001,755.042c-0,26.533 21.541,48.074 48.074,48.074l513.226,0c26.533,0 48.075,-21.541 48.075,-48.074l-0,-755.042Z" style="fill:#fff;"/><g id="_10" serif:id="10"><path d="M133.323,202.701l-93.83,0l0,-21.758l35.793,0l-0,-111.004l-35.793,0l0,-21.758l58.846,0l-0,132.762l34.984,0l-0,21.758Z" style="fill-rule:nonzero;"/><path d="M152.129,152.731l0,-54.764c0,-14.26 5.393,-26.552 16.178,-36.878c10.785,-10.326 23.929,-15.489 39.432,-15.489c15.504,-0 28.648,5.163 39.433,15.489c10.785,10.326 16.178,22.618 16.178,36.878l-0,54.764c-0,14.26 -5.393,26.645 -16.178,37.155c-10.785,10.51 -23.929,15.766 -39.433,15.766c-15.503,-0 -28.647,-5.256 -39.432,-15.766c-10.785,-10.51 -16.178,-22.895 -16.178,-37.155Zm23.458,-54.764l-0,54.764c-0,8.359 3.134,15.643 9.403,21.851c6.269,6.207 13.852,9.311 22.749,9.311c8.898,0 16.481,-3.134 22.75,-9.404c6.269,-6.269 9.403,-13.522 9.403,-21.758l0,-54.764c0,-8.236 -3.134,-15.366 -9.403,-21.389c-6.269,-6.024 -13.852,-9.036 -22.75,-9.036c-8.897,0 -16.48,3.012 -22.749,9.036c-6.269,6.023 -9.403,13.153 -9.403,21.389Z" style="fill-rule:nonzero;"/><path id="A" d="M496.677,677.299l93.83,-0l-0,21.758l-35.793,-0l0,111.004l35.793,-0l-0,21.758l-58.846,-0l0,-132.762l-34.984,-0l0,-21.758Z" style="fill-rule:nonzero;"/><path d="M477.871,727.269l-0,54.764c-0,14.26 -5.393,26.552 -16.178,36.878c-10.785,10.326 -23.929,15.489 -39.432,15.489c-15.504,0 -28.648,-5.163 -39.433,-15.489c-10.785,-10.326 -16.178,-22.618 -16.178,-36.878l0,-54.764c0,-14.26 5.393,-26.645 16.178,-37.155c10.785,-10.51 23.929,-15.766 39.433,-15.766c15.503,0 28.647,5.256 39.432,15.766c10.785,10.51 16.178,22.895 16.178,37.155Zm-23.458,54.764l0,-54.764c0,-8.359 -3.134,-15.643 -9.403,-21.851c-6.269,-6.207 -13.852,-9.311 -22.749,-9.311c-8.898,-0 -16.481,3.134 -22.75,9.404c-6.269,6.269 -9.403,13.522 -9.403,21.758l-0,54.764c-0,8.236 3.134,15.366 9.403,21.389c6.269,6.024 13.852,9.036 22.75,9.036c8.897,-0 16.48,-3.012 22.749,-9.036c6.269,-6.023 9.403,-13.153 9.403,-21.389Z" style="fill-rule:nonzero;"/><path d="M315,569.975c11.354,-39.833 40.19,-99.401 69.811,-127.394c-29.621,-27.994 -58.457,-87.562 -69.811,-127.395c-11.354,39.833 -40.19,99.401 -69.811,127.395c29.621,27.993 58.457,87.561 69.811,127.394" style="fill:#f00;"/><path d="M151.421,324.694c4.492,-15.757 15.899,-39.32 27.616,-50.394c-11.717,-11.074 -23.124,-34.637 -27.616,-50.394c-4.491,15.757 -15.898,39.32 -27.615,50.394c11.717,11.074 23.124,34.637 27.615,50.394" style="fill:#f00;"/><path d="M478.579,656.094c4.491,-15.757 15.898,-39.32 27.615,-50.394c-11.717,-11.074 -23.124,-34.637 -27.615,-50.394c-4.492,15.757 -15.899,39.32 -27.616,50.394c11.717,11.074 23.124,34.637 27.616,50.394" style="fill:#f00;"/></g></svg>