<?xml version="1.0" encoding="UTF-8" standalone="no"?><!DOCTYPE svg PUBLIC "-//W3C//DTD SVG 1.1//EN" "http://www.w3.org/Graphics/SVG/1.1/DTD/svg11.dtd"><svg width="100%" height="100%" viewBox="0 0 630 880" version="1.1" xmlns="http://www.w3.org/2000/svg" xmlns:xlink="http://www.w3.org/1999/xlink" xml:space="preserve" xmlns:serif="http://www.serif.com/" style="fill-rule:evenodd;clip-rule:evenodd;stroke-linejoin:round;stroke-miterlimit:2;"><path d="M619.688,62.479c-0,-26.533 -21.542,-48.074 -48.075,-48.074l-513.226,-0c-26.533,-0 -48.075,21.541 -48.075,48.074l0.001,755.042c-0,26.533 21.541,48.074 48.074,48.074l513.226,0c26.533,0 48.075,-21.541 48.075,-48.074l-0,-755.042Z" style="fill:#fff;"/><g id="_10" serif:id="10"><path d="M133.323,202.701l-93.83,0l0,-21.758l35.793,0l-0,-111.004l-35.793,0l0,-21.758l58.846,0l-0,132.762l34.984,0l-0,21.758Z" style="fill-rule:nonzero;"/><path d="M152.129,152.731l0,-54.764c0,-14.26 5.393,-26.552 16.178,-36.878c10.785,-10.326 23.929,-15.489 39.432,-15.489c15.504,-0 28.648,5.163 39.433,15.489c10.785,10.326 16.178,22.618 16.178,36.878l-0,54.764c-0,14.26 -5.393,26.645 -16.178,37.155c-10.785,10.51 -23.929,15.766 -39.433,15.766c-15.503,-0 -28.647,-5.256 -39.432,-15.766c-10.785,-10.51 -16.178,-22.895 -16.178,-37.155Zm23.458,-54.764l-0,54.764c-0,8.359 3.134,15.643 9.403,21.851c6.269,6.207 13.852,9.311 22.749,9.311c8.898,0 16.481,-3.134 22.75,-9.404c6.269,-6.269 9.403,-13.522 9.403,-21.758l0,-54.764c0,-8.236 -3.134,-15.366 -9.403,-21.389c-6.269,-6.024 -13.852,-9.036 -22.75,-9.036c-8.897,0 -16.48,3.012 -22.749,9.036c-6.269,6.023 -9.403,13.153 -9.403,21.389Z" style="fill-rule:nonzero;"/><path id="A" d="M496.677,677.299l93.83,-0l-0,21.758l-35.793,-0l0,111.004l35.793,-0l-0,21.758l-58.846,-0l0,-132.762l-34.984,-0l0,-21.758Z" style="fill-rule:nonzero;"/><path d="M477.871,727.269l-0,54.764c-0,14.26 -5.393,26.552 -16.178,36.878c-10.785,10.326 -23.929,15.489 -39.432,15.489c-15.504,0 -28.648,-5.163 -39.433,-15.489c-10.785,-10.326 -16.178,-22.618 -16.178,-36.878l0,-54.764c0,-14.26 5.393,-26.645 16.178,-37.155c10.785,-10.51 23.929,-15.766 39.433,-15.766c15.503,0 28.647,5.256 39.432,15.766c10.785,10.51 16.178,22.895 16.178,37.155Zm-23.458,54.764l0,-54.764c0,-8.359 -3.134,-15.643 -9.403,-21.851c-6.269,-6.207 -13.852,-9.311 -22.749,-9.311c-8.898,-0 -16.481,3.134 -22.75,9.404c-6.269,6.269 -9.403,13.522 -9.403,21.758l-0,54.764c-0,8.236 3.134,15.366 9.403,21.389c6.269,6.024 13.852,9.036 22.75,9.036c8.897,-0 16.48,-3.012 22.749,-9.036c6.269,-6.023 9.403,-13.153 9.403,-21.389Z" style="fill-rule:nonzero;"/><g><path d="M478.579,555.306l-34.121,-0l0.524,3.149c21.773,0.032 32.547,12.874 32.547,34.646c-17.616,-29.384 -41.002,-10.95 -40.946,1.05c0.021,27.188 32.868,26.027 41.996,61.943c9.127,-35.916 41.974,-34.755 41.995,-61.943c0.056,-12 -23.33,-30.434 -40.946,-1.05c0,-21.772 10.775,-34.614 32.547,-34.646l0.525,-3.149l-34.121,-0"/><path d="M315,567.394l84.509,0l-1.3,-7.801c-53.924,-0.078 -80.609,-31.885 -80.609,-85.809c43.63,72.778 101.55,27.121 101.411,-2.6c-0.051,-67.337 -81.404,-64.461 -104.011,-153.417c-22.607,88.956 -103.96,86.08 -104.011,153.417c-0.139,29.721 57.781,75.378 101.411,2.6c-0,53.924 -26.685,85.731 -80.609,85.809l-1.3,7.801l84.509,0"/><path d="M151.421,324.694l34.121,0l-0.524,-3.149c-21.773,-0.032 -32.547,-12.874 -32.547,-34.646c17.616,29.384 41.002,10.95 40.946,-1.05c-0.021,-27.188 -32.868,-26.027 -41.996,-61.943c-9.127,35.916 -41.974,34.755 -41.995,61.943c-0.056,12 23.33,30.434 40.946,1.05c-0,21.772 -10.775,34.614 -32.547,34.646l-0.525,3.149l34.121,0"/></g></g></svg>