<?xml version="1.0" encoding="UTF-8" standalone="no"?><!DOCTYPE svg PUBLIC "-//W3C//DTD SVG 1.1//EN" "http://www.w3.org/Graphics/SVG/1.1/DTD/svg11.dtd"><svg width="100%" height="100%" viewBox="0 0 630 880" version="1.1" xmlns="http://www.w3.org/2000/svg" xmlns:xlink="http://www.w3.org/1999/xlink" xml:space="preserve" xmlns:serif="http://www.serif.com/" style="fill-rule:evenodd;clip-rule:evenodd;stroke-linejoin:round;stroke-miterlimit:2;"><path d="M619.688,62.479c-0,-26.533 -21.542,-48.074 -48.075,-48.074l-513.226,-0c-26.533,-0 -48.075,21.541 -48.075,48.074l0.001,755.042c-0,26.533 21.541,48.074 48.074,48.074l513.226,0c26.533,0 48.075,-21.541 48.075,-48.074l-0,-755.042Z" style="fill:#fff;"/><g id="_6" serif:id="6"><path d="M32.213,137.98l-0.202,-0c-0.27,0.492 -0.404,-3.872 -0.404,-13.092c-0,-21.635 3.235,-39.029 9.706,-52.183c9.167,-18.07 24.199,-27.105 45.095,-27.105c10.246,-0 19.75,2.52 28.513,7.56c8.358,4.917 15.166,11.555 20.424,19.914l-18.806,10.326c-7.28,-11.678 -17.324,-17.517 -30.131,-17.517c-16.717,-0 -27.097,11.371 -31.142,34.112c9.302,-7.498 19.616,-11.248 30.94,-11.248c16.717,0 30.333,6.331 40.848,18.993c9.437,11.432 14.155,25.077 14.155,40.935c0,14.751 -5.055,27.781 -15.166,39.091c-10.785,11.924 -24.064,17.886 -39.837,17.886c-7.819,-0 -15.976,-2.336 -24.469,-7.007c-9.032,-4.917 -16.245,-13.953 -21.637,-27.106c-4.179,-10.203 -6.808,-21.389 -7.887,-33.559Zm53.993,47.389c9.706,-0 17.795,-4.047 24.266,-12.141c6.067,-7.359 9.1,-15.575 9.1,-24.648c-0,-10.178 -2.764,-19.008 -8.291,-26.489c-6.201,-8.707 -14.56,-13.061 -25.075,-13.061c-7.685,0 -14.627,3.373 -20.829,10.119c-5.123,5.639 -8.897,12.261 -11.324,19.865c1.213,11.283 3.91,20.97 8.089,29.062c5.931,11.528 13.953,17.293 24.064,17.293Z" style="fill-rule:nonzero;"/><path d="M597.787,742.02l0.202,0c0.27,-0.492 0.404,3.872 0.404,13.092c0,21.635 -3.235,39.029 -9.706,52.183c-9.167,18.07 -24.199,27.105 -45.095,27.105c-10.246,0 -19.75,-2.52 -28.513,-7.56c-8.358,-4.917 -15.166,-11.555 -20.424,-19.914l18.806,-10.326c7.28,11.678 17.324,17.517 30.131,17.517c16.717,0 27.097,-11.371 31.142,-34.112c-9.302,7.498 -19.616,11.248 -30.94,11.248c-16.717,-0 -30.333,-6.331 -40.848,-18.993c-9.437,-11.432 -14.155,-25.077 -14.155,-40.935c-0,-14.751 5.055,-27.781 15.166,-39.091c10.785,-11.924 24.064,-17.886 39.837,-17.886c7.819,0 15.976,2.336 24.469,7.007c9.032,4.917 16.245,13.953 21.637,27.106c4.179,10.203 6.808,21.389 7.887,33.559Zm-53.993,-47.389c-9.706,0 -17.795,4.047 -24.266,12.141c-6.067,7.359 -9.1,15.575 -9.1,24.648c0,10.178 2.764,19.008 8.291,26.489c6.201,8.707 14.56,13.061 25.075,13.061c7.685,-0 14.627,-3.373 20.829,-10.119c5.123,-5.639 8.897,-12.261 11.324,-19.865c-1.213,-11.283 -3.91,-20.97 -8.089,-29.062c-5.931,-11.528 -13.953,-17.293 -24.064,-17.293Z" style="fill-rule:nonzero;"/></g><g><g><circle cx="86.413" cy="247.358" r="23.439"/><circle cx="60.63" cy="287.204" r="23.439"/><circle cx="112.196" cy="287.204" r="23.439"/><path d="M86.413,266.39l13.618,0l-2.485,2.044l2.915,-1.521l-9.36,30.839c-5.026,13.281 -0.015,21.006 8.203,26.955l-25.783,0c8.219,-5.949 13.23,-13.674 8.204,-26.955l-9.36,-30.839l2.915,1.521l-2.486,-2.044l13.619,0"/></g><g><circle cx="543.592" cy="632.655" r="23.439"/><circle cx="569.375" cy="592.808" r="23.439"/><circle cx="517.809" cy="592.808" r="23.439"/><path d="M543.592,613.623l-13.618,-0l2.485,-2.044l-2.915,1.521l9.36,-30.839c5.026,-13.281 0.015,-21.006 -8.204,-26.955l25.784,-0c-8.219,5.949 -13.23,13.674 -8.204,26.955l9.36,30.839l-2.915,-1.521l2.485,2.044l-13.618,-0"/></g><g><circle cx="315" cy="381.136" r="56.442"/><circle cx="252.914" cy="477.087" r="56.442"/><circle cx="377.086" cy="477.087" r="56.442"/><path d="M315,426.966l32.793,0l-5.985,4.922l7.02,-3.663l-22.54,74.261c-12.101,31.981 -0.035,50.582 19.755,64.908l-62.086,0c19.79,-14.326 31.856,-32.927 19.755,-64.908l-22.54,-74.261l7.02,3.663l-5.985,-4.922l32.793,0"/></g></g></svg>