<?xml version="1.0" encoding="UTF-8" standalone="no"?><!DOCTYPE svg PUBLIC "-//W3C//DTD SVG 1.1//EN" "http://www.w3.org/Graphics/SVG/1.1/DTD/svg11.dtd"><svg width="100%" height="100%" viewBox="0 0 630 880" version="1.1" xmlns="http://www.w3.org/2000/svg" xmlns:xlink="http://www.w3.org/1999/xlink" xml:space="preserve" xmlns:serif="http://www.serif.com/" style="fill-rule:evenodd;clip-rule:evenodd;stroke-linejoin:round;stroke-miterlimit:2;"><path d="M619.688,62.479c-0,-26.533 -21.542,-48.074 -48.075,-48.074l-513.226,-0c-26.533,-0 -48.075,21.541 -48.075,48.074l0.001,755.042c-0,26.533 21.541,48.074 48.074,48.074l513.226,0c26.533,0 48.075,-21.541 48.075,-48.074l-0,-755.042Z" style="fill:#fff;"/><g id="_6" serif:id="6"><path d="M32.213,137.98l-0.202,-0c-0.27,0.492 -0.404,-3.872 -0.404,-13.092c-0,-21.635 3.235,-39.029 9.706,-52.183c9.167,-18.07 24.199,-27.105 45.095,-27.105c10.246,-0 19.75,2.52 28.513,7.56c8.358,4.917 15.166,11.555 20.424,19.914l-18.806,10.326c-7.28,-11.678 -17.324,-17.517 -30.131,-17.517c-16.717,-0 -27.097,11.371 -31.142,34.112c9.302,-7.498 19.616,-11.248 30.94,-11.248c16.717,0 30.333,6.331 40.848,18.993c9.437,11.432 14.155,25.077 14.155,40.935c0,14.751 -5.055,27.781 -15.166,39.091c-10.785,11.924 -24.064,17.886 -39.837,17.886c-7.819,-0 -15.976,-2.336 -24.469,-7.007c-9.032,-4.917 -16.245,-13.953 -21.637,-27.106c-4.179,-10.203 -6.808,-21.389 -7.887,-33.559Zm53.993,47.389c9.706,-0 17.795,-4.047 24.266,-12.141c6.067,-7.359 9.1,-15.575 9.1,-24.648c-0,-10.178 -2.764,-19.008 -8.291,-26.489c-6.201,-8.707 -14.56,-13.061 -25.075,-13.061c-7.685,0 -14.627,3.373 -20.829,10.119c-5.123,5.639 -8.897,12.261 -11.324,19.865c1.213,11.283 3.91,20.97 8.089,29.062c5.931,11.528 13.953,17.293 24.064,17.293Z" style="fill-rule:nonzero;"/><path d="M597.787,742.02l0.202,0c0.27,-0.492 0.404,3.872 0.404,13.092c0,21.635 -3.235,39.029 -9.706,52.183c-9.167,18.07 -24.199,27.105 -45.095,27.105c-10.246,0 -19.75,-2.52 -28.513,-7.56c-8.358,-4.917 -15.166,-11.555 -20.424,-19.914l18.806,-10.326c7.28,11.678 17.324,17.517 30.131,17.517c16.717,0 27.097,-11.371 31.142,-34.112c-9.302,7.498 -19.616,11.248 -30.94,11.248c-16.717,-0 -30.333,-6.331 -40.848,-18.993c-9.437,-11.432 -14.155,-25.077 -14.155,-40.935c-0,-14.751 5.055,-27.781 15.166,-39.091c10.785,-11.924 24.064,-17.886 39.837,-17.886c7.819,0 15.976,2.336 24.469,7.007c9.032,4.917 16.245,13.953 21.637,27.106c4.179,10.203 6.808,21.389 7.887,33.559Zm-53.993,-47.389c-9.706,0 -17.795,4.047 -24.266,12.141c-6.067,7.359 -9.1,15.575 -9.1,24.648c0,10.178 2.764,19.008 8.291,26.489c6.201,8.707 14.56,13.061 25.075,13.061c7.685,-0 14.627,-3.373 20.829,-10.119c5.123,-5.639 8.897,-12.261 11.324,-19.865c-1.213,-11.283 -3.91,-20.97 -8.089,-29.062c-5.931,-11.528 -13.953,-17.293 -24.064,-17.293Z" style="fill-rule:nonzero;"/></g><g><path d="M315,567.394l84.509,0l-1.3,-7.801c-53.924,-0.078 -80.609,-31.885 -80.609,-85.809c43.63,72.778 101.55,27.121 101.411,-2.6c-0.051,-67.337 -81.404,-64.461 -104.011,-153.417c-22.607,88.956 -103.96,86.08 -104.011,153.417c-0.139,29.721 57.781,75.378 101.411,2.6c-0,53.924 -26.685,85.731 -80.609,85.809l-1.3,7.801l84.509,0"/><path d="M86.408,324.694l34.121,0l-0.525,-3.149c-21.772,-0.032 -32.546,-12.874 -32.546,-34.646c17.616,29.384 41.001,10.95 40.945,-1.05c-0.021,-27.188 -32.867,-26.027 -41.995,-61.943c-9.127,35.916 -41.974,34.755 -41.995,61.943c-0.056,12 23.329,30.434 40.945,1.05c0,21.772 -10.774,34.614 -32.546,34.646l-0.525,3.149l34.121,0"/><path d="M543.592,555.306l-34.121,-0l0.525,3.149c21.772,0.032 32.546,12.874 32.546,34.646c-17.616,-29.384 -41.001,-10.95 -40.945,1.05c0.021,27.188 32.867,26.027 41.995,61.943c9.127,-35.916 41.974,-34.755 41.995,-61.943c0.056,-12 -23.329,-30.434 -40.945,-1.05c-0,-21.772 10.774,-34.614 32.546,-34.646l0.525,-3.149l-34.121,-0"/></g></svg>