<?xml version="1.0" encoding="UTF-8" standalone="no"?><!DOCTYPE svg PUBLIC "-//W3C//DTD SVG 1.1//EN" "http://www.w3.org/Graphics/SVG/1.1/DTD/svg11.dtd"><svg width="100%" height="100%" viewBox="0 0 630 880" version="1.1" xmlns="http://www.w3.org/2000/svg" xmlns:xlink="http://www.w3.org/1999/xlink" xml:space="preserve" xmlns:serif="http://www.serif.com/" style="fill-rule:evenodd;clip-rule:evenodd;stroke-linejoin:round;stroke-miterlimit:2;"><path d="M619.688,62.479c-0,-26.533 -21.542,-48.074 -48.075,-48.074l-513.226,-0c-26.533,-0 -48.075,21.541 -48.075,48.074l0.001,755.042c-0,26.533 21.541,48.074 48.074,48.074l513.226,0c26.533,0 48.075,-21.541 48.075,-48.074l-0,-755.042Z" style="fill:#fff;"/><g id="_7" serif:id="7"><path d="M31.809,89.854l-0,-41.12l98.885,0l11.122,17.702c-27.637,36.141 -46.847,81.378 -57.632,135.712l-23.66,0c9.572,-49.786 26.356,-93.671 50.353,-131.655l-55.813,-0l0,19.361l-23.255,-0Z" style="fill-rule:nonzero;"/><path d="M598.191,790.146l0,41.12l-98.885,-0l-11.122,-17.702c27.637,-36.141 46.847,-81.378 57.632,-135.712l23.66,-0c-9.572,49.786 -26.356,93.671 -50.353,131.655l55.813,0l-0,-19.361l23.255,0Z" style="fill-rule:nonzero;"/></g><g><g><circle cx="86.413" cy="247.358" r="23.439"/><circle cx="60.63" cy="287.204" r="23.439"/><circle cx="112.196" cy="287.204" r="23.439"/><path d="M86.413,266.39l13.618,0l-2.485,2.044l2.915,-1.521l-9.36,30.839c-5.026,13.281 -0.015,21.006 8.203,26.955l-25.783,0c8.219,-5.949 13.23,-13.674 8.204,-26.955l-9.36,-30.839l2.915,1.521l-2.486,-2.044l13.619,0"/></g><g><circle cx="543.592" cy="632.655" r="23.439"/><circle cx="569.375" cy="592.808" r="23.439"/><circle cx="517.809" cy="592.808" r="23.439"/><path d="M543.592,613.623l-13.618,-0l2.485,-2.044l-2.915,1.521l9.36,-30.839c5.026,-13.281 0.015,-21.006 -8.204,-26.955l25.784,-0c-8.219,5.949 -13.23,13.674 -8.204,26.955l9.36,30.839l-2.915,-1.521l2.485,2.044l-13.618,-0"/></g><g><circle cx="315" cy="381.136" r="56.442"/><circle cx="252.914" cy="477.087" r="56.442"/><circle cx="377.086" cy="477.087" r="56.442"/><path d="M315,426.966l32.793,0l-5.985,4.922l7.02,-3.663l-22.54,74.261c-12.101,31.981 -0.035,50.582 19.755,64.908l-62.086,0c19.79,-14.326 31.856,-32.927 19.755,-64.908l-22.54,-74.261l7.02,3.663l-5.985,-4.922l32.793,0"/></g></g></svg>