<?xml version="1.0" encoding="UTF-8" standalone="no"?><!DOCTYPE svg PUBLIC "-//W3C//DTD SVG 1.1//EN" "http://www.w3.org/Graphics/SVG/1.1/DTD/svg11.dtd"><svg width="100%" height="100%" viewBox="0 0 630 880" version="1.1" xmlns="http://www.w3.org/2000/svg" xmlns:xlink="http://www.w3.org/1999/xlink" xml:space="preserve" xmlns:serif="http://www.serif.com/" style="fill-rule:evenodd;clip-rule:evenodd;stroke-linejoin:round;stroke-miterlimit:2;"><path d="M619.688,62.479c-0,-26.533 -21.542,-48.074 -48.075,-48.074l-513.226,-0c-26.533,-0 -48.075,21.541 -48.075,48.074l0.001,755.042c-0,26.533 21.541,48.074 48.074,48.074l513.226,0c26.533,0 48.075,-21.541 48.075,-48.074l-0,-755.042Z" style="fill:#fff;"/><g id="_8" serif:id="8"><path d="M86.408,204.361c-14.964,-0 -27.906,-4.426 -38.826,-13.276c-11.324,-9.097 -16.986,-20.345 -16.986,-33.744c-0,-15.735 7.482,-28.335 22.446,-37.8c-10.785,-8.113 -16.178,-18.378 -16.178,-30.794c0,-11.924 5.056,-21.942 15.167,-30.055c9.706,-7.745 21.165,-11.617 34.377,-11.617c13.212,-0 24.671,3.872 34.377,11.617c10.111,8.113 15.167,18.131 15.167,30.055c-0,12.293 -5.393,22.558 -16.178,30.794c14.964,9.342 22.446,21.942 22.446,37.8c0,13.399 -5.561,24.586 -16.683,33.559c-11.122,8.974 -24.165,13.461 -39.129,13.461Zm0,-137.003c-7.145,-0 -13.414,1.958 -18.806,5.875c-6.067,4.162 -9.1,9.364 -9.1,15.607c-0,6.242 3.033,11.444 9.1,15.607c5.392,3.916 11.661,5.874 18.806,5.874c7.145,0 13.414,-1.958 18.806,-5.874c6.067,-4.163 9.1,-9.365 9.1,-15.607c0,-6.243 -3.033,-11.445 -9.1,-15.607c-5.392,-3.917 -11.661,-5.875 -18.806,-5.875Zm0,63.246c-8.763,0 -16.515,2.45 -23.255,7.35c-7.28,5.146 -10.92,11.639 -10.92,19.479c-0,7.718 3.64,14.211 10.92,19.479c6.74,4.777 14.492,7.166 23.255,7.166c8.763,-0 16.515,-2.389 23.255,-7.166c7.28,-5.268 10.92,-11.761 10.92,-19.479c0,-7.84 -3.64,-14.333 -10.92,-19.479c-6.74,-4.9 -14.492,-7.35 -23.255,-7.35Z" style="fill-rule:nonzero;"/><path d="M543.592,675.639c14.964,0 27.906,4.426 38.826,13.276c11.324,9.097 16.986,20.345 16.986,33.744c0,15.735 -7.482,28.335 -22.446,37.8c10.785,8.113 16.178,18.378 16.178,30.794c-0,11.924 -5.056,21.942 -15.167,30.055c-9.706,7.745 -21.165,11.617 -34.377,11.617c-13.212,0 -24.671,-3.872 -34.377,-11.617c-10.111,-8.113 -15.167,-18.131 -15.167,-30.055c0,-12.293 5.393,-22.558 16.178,-30.794c-14.964,-9.342 -22.446,-21.942 -22.446,-37.8c-0,-13.399 5.561,-24.586 16.683,-33.559c11.122,-8.974 24.165,-13.461 39.129,-13.461Zm-0,137.003c7.145,0 13.414,-1.958 18.806,-5.875c6.067,-4.162 9.1,-9.364 9.1,-15.607c0,-6.242 -3.033,-11.444 -9.1,-15.607c-5.392,-3.916 -11.661,-5.874 -18.806,-5.874c-7.145,-0 -13.414,1.958 -18.806,5.874c-6.067,4.163 -9.1,9.365 -9.1,15.607c-0,6.243 3.033,11.445 9.1,15.607c5.392,3.917 11.661,5.875 18.806,5.875Zm-0,-63.246c8.763,-0 16.515,-2.45 23.255,-7.35c7.28,-5.146 10.92,-11.639 10.92,-19.479c0,-7.718 -3.64,-14.211 -10.92,-19.479c-6.74,-4.777 -14.492,-7.166 -23.255,-7.166c-8.763,0 -16.515,2.389 -23.255,7.166c-7.28,5.268 -10.92,11.761 -10.92,19.479c-0,7.84 3.64,14.333 10.92,19.479c6.74,4.9 14.492,7.35 23.255,7.35Z" style="fill-rule:nonzero;"/></g><g><path d="M315,569.975c11.354,-39.833 40.19,-99.401 69.811,-127.394c-29.621,-27.994 -58.457,-87.562 -69.811,-127.395c-11.354,39.833 -40.19,99.401 -69.811,127.395c29.621,27.993 58.457,87.561 69.811,127.394" style="fill:#f00;"/><path d="M86.408,324.694c4.491,-15.757 15.898,-39.32 27.616,-50.394c-11.718,-11.074 -23.125,-34.637 -27.616,-50.394c-4.491,15.757 -15.898,39.32 -27.616,50.394c11.718,11.074 23.125,34.637 27.616,50.394" style="fill:#f00;"/><path d="M543.592,656.094c4.491,-15.757 15.898,-39.32 27.616,-50.394c-11.718,-11.074 -23.125,-34.637 -27.616,-50.394c-4.491,15.757 -15.898,39.32 -27.616,50.394c11.718,11.074 23.125,34.637 27.616,50.394" style="fill:#f00;"/></g></svg>