<?xml version="1.0" encoding="UTF-8" standalone="no"?><!DOCTYPE svg PUBLIC "-//W3C//DTD SVG 1.1//EN" "http://www.w3.org/Graphics/SVG/1.1/DTD/svg11.dtd"><svg width="100%" height="100%" viewBox="0 0 630 880" version="1.1" xmlns="http://www.w3.org/2000/svg" xmlns:xlink="http://www.w3.org/1999/xlink" xml:space="preserve" xmlns:serif="http://www.serif.com/" style="fill-rule:evenodd;clip-rule:evenodd;stroke-linejoin:round;stroke-miterlimit:2;"><path d="M619.688,62.479c-0,-26.533 -21.542,-48.074 -48.075,-48.074l-513.226,-0c-26.533,-0 -48.075,21.541 -48.075,48.074l0.001,755.042c-0,26.533 21.541,48.074 48.074,48.074l513.226,0c26.533,0 48.075,-21.541 48.075,-48.074l-0,-755.042Z" style="fill:#fff;"/><g id="_9" serif:id="9"><path d="M118.156,147.015c-9.436,6.884 -20.087,10.326 -31.95,10.326c-15.908,0 -29.187,-5.716 -39.837,-17.148c-10.246,-11.064 -15.369,-23.91 -15.369,-38.538c0,-14.752 5.123,-27.598 15.369,-38.538c10.65,-11.555 23.929,-17.333 39.837,-17.333c19.682,0 34.444,9.281 44.286,27.843c7.549,14.383 11.324,31.654 11.324,51.814c0,21.144 -3.707,38.661 -11.122,52.552c-9.707,18.316 -24.94,27.474 -45.702,27.474c-20.221,0 -36.264,-9.465 -48.128,-28.396l19.009,-10.142c7.549,12.17 17.256,18.255 29.119,18.255c17.661,0 28.716,-12.723 33.164,-38.169Zm-32.051,-80.948c-9.736,0 -17.849,3.801 -24.339,11.404c-6.086,6.987 -9.129,15.018 -9.129,24.092c0,9.073 3.043,17.104 9.129,24.091c6.49,7.603 14.603,11.404 24.339,11.404c8.249,-0 15.416,-2.881 21.501,-8.643c5.41,-5.15 9.129,-11.587 11.157,-19.313c-3.922,-28.69 -14.808,-43.035 -32.658,-43.035Z" style="fill-rule:nonzero;"/><path d="M511.844,732.985c9.436,-6.884 20.087,-10.326 31.95,-10.326c15.908,-0 29.187,5.716 39.837,17.148c10.246,11.064 15.369,23.91 15.369,38.538c0,14.752 -5.123,27.598 -15.369,38.538c-10.65,11.555 -23.929,17.333 -39.837,17.333c-19.682,-0 -34.444,-9.281 -44.286,-27.843c-7.549,-14.383 -11.324,-31.654 -11.324,-51.814c-0,-21.144 3.707,-38.661 11.122,-52.552c9.707,-18.316 24.94,-27.474 45.702,-27.474c20.221,-0 36.264,9.465 48.128,28.396l-19.009,10.142c-7.549,-12.17 -17.256,-18.255 -29.119,-18.255c-17.661,-0 -28.716,12.723 -33.164,38.169Zm32.051,80.948c9.736,-0 17.849,-3.801 24.339,-11.404c6.086,-6.987 9.129,-15.018 9.129,-24.092c-0,-9.073 -3.043,-17.104 -9.129,-24.091c-6.49,-7.603 -14.603,-11.404 -24.339,-11.404c-8.249,0 -15.416,2.881 -21.501,8.643c-5.41,5.15 -9.129,11.587 -11.157,19.313c3.922,28.69 14.808,43.035 32.658,43.035Z" style="fill-rule:nonzero;"/></g><g><g><circle cx="86.413" cy="247.358" r="23.439"/><circle cx="60.63" cy="287.204" r="23.439"/><circle cx="112.196" cy="287.204" r="23.439"/><path d="M86.413,266.39l13.618,0l-2.485,2.044l2.915,-1.521l-9.36,30.839c-5.026,13.281 -0.015,21.006 8.203,26.955l-25.783,0c8.219,-5.949 13.23,-13.674 8.204,-26.955l-9.36,-30.839l2.915,1.521l-2.486,-2.044l13.619,0"/></g><g><circle cx="543.592" cy="632.655" r="23.439"/><circle cx="569.375" cy="592.808" r="23.439"/><circle cx="517.809" cy="592.808" r="23.439"/><path d="M543.592,613.623l-13.618,-0l2.485,-2.044l-2.915,1.521l9.36,-30.839c5.026,-13.281 0.015,-21.006 -8.204,-26.955l25.784,-0c-8.219,5.949 -13.23,13.674 -8.204,26.955l9.36,30.839l-2.915,-1.521l2.485,2.044l-13.618,-0"/></g><g><circle cx="315" cy="381.136" r="56.442"/><circle cx="252.914" cy="477.087" r="56.442"/><circle cx="377.086" cy="477.087" r="56.442"/><path d="M315,426.966l32.793,0l-5.985,4.922l7.02,-3.663l-22.54,74.261c-12.101,31.981 -0.035,50.582 19.755,64.908l-62.086,0c19.79,-14.326 31.856,-32.927 19.755,-64.908l-22.54,-74.261l7.02,3.663l-5.985,-4.922l32.793,0"/></g></g></svg>