<?xml version="1.0" encoding="UTF-8" standalone="no"?><!DOCTYPE svg PUBLIC "-//W3C//DTD SVG 1.1//EN" "http://www.w3.org/Graphics/SVG/1.1/DTD/svg11.dtd"><svg width="100%" height="100%" viewBox="0 0 630 880" version="1.1" xmlns="http://www.w3.org/2000/svg" xmlns:xlink="http://www.w3.org/1999/xlink" xml:space="preserve" xmlns:serif="http://www.serif.com/" style="fill-rule:evenodd;clip-rule:evenodd;stroke-linejoin:round;stroke-miterlimit:2;"><path d="M619.688,62.479c-0,-26.533 -21.542,-48.074 -48.075,-48.074l-513.226,-0c-26.533,-0 -48.075,21.541 -48.075,48.074l0.001,755.042c-0,26.533 21.541,48.074 48.074,48.074l513.226,0c26.533,0 48.075,-21.541 48.075,-48.074l-0,-755.042Z" style="fill:#fff;"/><g id="_9" serif:id="9"><path d="M118.156,147.015c-9.436,6.884 -20.087,10.326 -31.95,10.326c-15.908,0 -29.187,-5.716 -39.837,-17.148c-10.246,-11.064 -15.369,-23.91 -15.369,-38.538c0,-14.752 5.123,-27.598 15.369,-38.538c10.65,-11.555 23.929,-17.333 39.837,-17.333c19.682,0 34.444,9.281 44.286,27.843c7.549,14.383 11.324,31.654 11.324,51.814c0,21.144 -3.707,38.661 -11.122,52.552c-9.707,18.316 -24.94,27.474 -45.702,27.474c-20.221,0 -36.264,-9.465 -48.128,-28.396l19.009,-10.142c7.549,12.17 17.256,18.255 29.119,18.255c17.661,0 28.716,-12.723 33.164,-38.169Zm-32.051,-80.948c-9.736,0 -17.849,3.801 -24.339,11.404c-6.086,6.987 -9.129,15.018 -9.129,24.092c0,9.073 3.043,17.104 9.129,24.091c6.49,7.603 14.603,11.404 24.339,11.404c8.249,-0 15.416,-2.881 21.501,-8.643c5.41,-5.15 9.129,-11.587 11.157,-19.313c-3.922,-28.69 -14.808,-43.035 -32.658,-43.035Z" style="fill-rule:nonzero;"/><path d="M511.844,732.985c9.436,-6.884 20.087,-10.326 31.95,-10.326c15.908,-0 29.187,5.716 39.837,17.148c10.246,11.064 15.369,23.91 15.369,38.538c0,14.752 -5.123,27.598 -15.369,38.538c-10.65,11.555 -23.929,17.333 -39.837,17.333c-19.682,-0 -34.444,-9.281 -44.286,-27.843c-7.549,-14.383 -11.324,-31.654 -11.324,-51.814c-0,-21.144 3.707,-38.661 11.122,-52.552c9.707,-18.316 24.94,-27.474 45.702,-27.474c20.221,-0 36.264,9.465 48.128,28.396l-19.009,10.142c-7.549,-12.17 -17.256,-18.255 -29.119,-18.255c-17.661,-0 -28.716,12.723 -33.164,38.169Zm32.051,80.948c9.736,-0 17.849,-3.801 24.339,-11.404c6.086,-6.987 9.129,-15.018 9.129,-24.092c-0,-9.073 -3.043,-17.104 -9.129,-24.091c-6.49,-7.603 -14.603,-11.404 -24.339,-11.404c-8.249,0 -15.416,2.881 -21.501,8.643c-5.41,5.15 -9.129,11.587 -11.157,19.313c3.922,28.69 14.808,43.035 32.658,43.035Z" style="fill-rule:nonzero;"/></g><g><path d="M315,569.975c11.354,-39.833 40.19,-99.401 69.811,-127.394c-29.621,-27.994 -58.457,-87.562 -69.811,-127.395c-11.354,39.833 -40.19,99.401 -69.811,127.395c29.621,27.993 58.457,87.561 69.811,127.394" style="fill:#f00;"/><path d="M86.408,324.694c4.491,-15.757 15.898,-39.32 27.616,-50.394c-11.718,-11.074 -23.125,-34.637 -27.616,-50.394c-4.491,15.757 -15.898,39.32 -27.616,50.394c11.718,11.074 23.125,34.637 27.616,50.394" style="fill:#f00;"/><path d="M543.592,656.094c4.491,-15.757 15.898,-39.32 27.616,-50.394c-11.718,-11.074 -23.125,-34.637 -27.616,-50.394c-4.491,15.757 -15.898,39.32 -27.616,50.394c11.718,11.074 23.125,34.637 27.616,50.394" style="fill:#f00;"/></g></svg>