<?xml version="1.0" encoding="UTF-8" standalone="no"?><!DOCTYPE svg PUBLIC "-//W3C//DTD SVG 1.1//EN" "http://www.w3.org/Graphics/SVG/1.1/DTD/svg11.dtd"><svg width="100%" height="100%" viewBox="0 0 630 880" version="1.1" xmlns="http://www.w3.org/2000/svg" xmlns:xlink="http://www.w3.org/1999/xlink" xml:space="preserve" xmlns:serif="http://www.serif.com/" style="fill-rule:evenodd;clip-rule:evenodd;stroke-linejoin:round;stroke-miterlimit:2;"><path d="M619.688,62.479c-0,-26.533 -21.542,-48.074 -48.075,-48.074l-513.226,-0c-26.533,-0 -48.075,21.541 -48.075,48.074l0.001,755.042c-0,26.533 21.541,48.074 48.074,48.074l513.226,0c26.533,0 48.075,-21.541 48.075,-48.074l-0,-755.042Z" style="fill:#fff;"/><g id="A"><path d="M73.286,149.597l26.194,-0l-13.148,-63.541l-13.046,63.541Zm2.809,34.85l-0,18.623l-45.095,0l0,-18.623l14.762,-0l27.903,-135.897l25.281,0l28.111,135.897l14.759,-0l0,18.623l-45.095,0l0,-18.623l9.76,-0.009l-3.235,-16.218l-33.578,0l-3.33,16.218l9.757,0.009Z" style="fill-rule:nonzero;"/><path d="M556.714,730.403l-26.194,0l13.148,63.541l13.046,-63.541Zm-2.809,-34.85l0,-18.623l45.095,-0l-0,18.623l-14.762,0l-27.903,135.897l-25.281,0l-28.111,-135.897l-14.759,0l-0,-18.623l45.095,-0l-0,18.623l-9.76,0.009l3.235,16.218l33.578,-0l3.33,-16.218l-9.757,-0.009Z" style="fill-rule:nonzero;"/></g><g><path d="M315,569.975c11.354,-39.833 40.19,-99.401 69.811,-127.394c-29.621,-27.994 -58.457,-87.562 -69.811,-127.395c-11.354,39.833 -40.19,99.401 -69.811,127.395c29.621,27.993 58.457,87.561 69.811,127.394" style="fill:#f00;"/><path d="M86.408,324.694c4.491,-15.757 15.898,-39.32 27.616,-50.394c-11.718,-11.074 -23.125,-34.637 -27.616,-50.394c-4.491,15.757 -15.898,39.32 -27.616,50.394c11.718,11.074 23.125,34.637 27.616,50.394" style="fill:#f00;"/><path d="M543.592,656.094c4.491,-15.757 15.898,-39.32 27.616,-50.394c-11.718,-11.074 -23.125,-34.637 -27.616,-50.394c-4.491,15.757 -15.898,39.32 -27.616,50.394c11.718,11.074 23.125,34.637 27.616,50.394" style="fill:#f00;"/></g></svg>