<?xml version="1.0" encoding="UTF-8" standalone="no"?><!DOCTYPE svg PUBLIC "-//W3C//DTD SVG 1.1//EN" "http://www.w3.org/Graphics/SVG/1.1/DTD/svg11.dtd"><svg width="100%" height="100%" viewBox="0 0 630 880" version="1.1" xmlns="http://www.w3.org/2000/svg" xmlns:xlink="http://www.w3.org/1999/xlink" xml:space="preserve" xmlns:serif="http://www.serif.com/" style="fill-rule:evenodd;clip-rule:evenodd;stroke-linejoin:round;stroke-miterlimit:2;"><path d="M619.688,62.479c-0,-26.533 -21.542,-48.074 -48.075,-48.074l-513.226,-0c-26.533,-0 -48.075,21.541 -48.075,48.074l0.001,755.042c-0,26.533 21.541,48.074 48.074,48.074l513.226,0c26.533,0 48.075,-21.541 48.075,-48.074l-0,-755.042Z" style="fill:#fff;"/><g id="A"><path d="M73.286,149.597l26.194,-0l-13.148,-63.541l-13.046,63.541Zm2.809,34.85l-0,18.623l-45.095,0l0,-18.623l14.762,-0l27.903,-135.897l25.281,0l28.111,135.897l14.759,-0l0,18.623l-45.095,0l0,-18.623l9.76,-0.009l-3.235,-16.218l-33.578,0l-3.33,16.218l9.757,0.009Z" style="fill-rule:nonzero;"/><path d="M556.714,730.403l-26.194,0l13.148,63.541l13.046,-63.541Zm-2.809,-34.85l0,-18.623l45.095,-0l-0,18.623l-14.762,0l-27.903,135.897l-25.281,0l-28.111,-135.897l-14.759,0l-0,-18.623l45.095,-0l-0,18.623l-9.76,0.009l3.235,16.218l33.578,-0l3.33,-16.218l-9.757,-0.009Z" style="fill-rule:nonzero;"/></g><g><path d="M315,567.394l84.509,0l-1.3,-7.801c-53.924,-0.078 -80.609,-31.885 -80.609,-85.809c43.63,72.778 101.55,27.121 101.411,-2.6c-0.051,-67.337 -81.404,-64.461 -104.011,-153.417c-22.607,88.956 -103.96,86.08 -104.011,153.417c-0.139,29.721 57.781,75.378 101.411,2.6c-0,53.924 -26.685,85.731 -80.609,85.809l-1.3,7.801l84.509,0"/><path d="M86.408,324.694l34.121,0l-0.525,-3.149c-21.772,-0.032 -32.546,-12.874 -32.546,-34.646c17.616,29.384 41.001,10.95 40.945,-1.05c-0.021,-27.188 -32.867,-26.027 -41.995,-61.943c-9.127,35.916 -41.974,34.755 -41.995,61.943c-0.056,12 23.329,30.434 40.945,1.05c0,21.772 -10.774,34.614 -32.546,34.646l-0.525,3.149l34.121,0"/><path d="M543.592,555.306l-34.121,-0l0.525,3.149c21.772,0.032 32.546,12.874 32.546,34.646c-17.616,-29.384 -41.001,-10.95 -40.945,1.05c0.021,27.188 32.867,26.027 41.995,61.943c9.127,-35.916 41.974,-34.755 41.995,-61.943c0.056,-12 -23.329,-30.434 -40.945,-1.05c-0,-21.772 10.774,-34.614 32.546,-34.646l0.525,-3.149l-34.121,-0"/></g></svg>