<svg width="112" height="152" viewBox="0 0 112 152" fill="none" xmlns="http://www.w3.org/2000/svg">
<g clip-path="url(#clip0_3_3)">
<rect x="2" y="3" width="108" height="147" rx="8" fill="#9C0000"/>
<path d="M18.7464 67.8755C19.3797 67.2252 21.0816 67.1602 21.9524 68.4282C22.6516 69.4557 22.2756 71.0358 20.9431 71.5886C19.1422 72.3429 18.6078 74.6839 19.9997 76.1145C18.6078 77.5451 19.1356 79.8861 20.9431 80.6469C22.2624 81.1931 22.6582 82.7668 21.9524 83.8072C21.0816 85.0818 19.3731 85.0038 18.7464 84.3535C15.6261 81.2452 13.4756 79.0993 10.4807 76.1145C13.4162 73.1883 15.6261 70.9903 18.7464 67.8755ZM19.0498 85.2834C22.6252 86.5514 24.5779 81.4468 21.2003 80.0487C19.7029 79.4179 19.3797 77.402 20.699 76.3746L21.0222 76.1145L20.699 75.8609C19.3797 74.8335 19.7029 72.8176 21.2003 72.1868C22.9221 71.478 23.4234 69.4297 22.4999 68.0641C21.2993 66.3083 19.0696 66.6075 18.278 67.4268C14.973 70.7172 12.9281 72.7526 9.55713 76.1145C19.0696 85.602 18.3769 85.0493 19.0498 85.2834Z" fill="white"/>
<path d="M73.4265 76.1145C70.1611 79.3268 70.3854 79.0928 70.3854 79.0928C70.1017 78.618 69.8181 78.2279 69.4948 77.8572L71.2627 76.121L69.4948 74.3783C69.8313 73.9881 70.1281 73.5719 70.392 73.1362L73.4265 76.1145ZM59.5734 90.6807C59.7317 90.5246 60.5892 89.6922 60.7278 89.5167C65.893 91.2984 70.8537 86.3953 69.0528 81.3167C69.1716 81.2257 70.1215 80.2763 70.2271 80.1722C73.4133 87.0521 65.8402 93.7695 59.5734 90.6807ZM58.9599 90.362C58.5641 90.1409 58.1287 89.8483 57.6999 89.4907L58.7751 88.4177C59.2039 88.7623 59.6657 89.0485 60.0879 89.2501L58.9599 90.362ZM55.4504 93.8345L52.4225 90.8432C52.8645 90.5831 53.2867 90.2905 53.6825 89.9523L55.4834 91.7341C55.7736 91.3504 56.8423 90.3295 57.2249 89.9523C57.6141 90.284 58.0297 90.5766 58.4717 90.8367L55.4504 93.8345ZM50.8063 89.2501C51.1955 89.0745 51.6837 88.7753 52.1257 88.4177L53.2075 89.4842C52.7853 89.8158 52.5346 90.0369 51.9409 90.3685L50.8063 89.2501ZM40.6671 80.1787C40.8321 80.3348 41.6698 81.1736 41.848 81.3167C40.0405 86.4149 45.0342 91.2919 50.173 89.5167C50.2588 89.6272 51.3274 90.6807 51.3274 90.6807C44.6911 93.6719 37.6129 86.9546 40.6671 80.1787ZM37.4809 76.1145L40.5088 73.1297C40.7727 73.5719 41.0695 73.9881 41.406 74.3718L39.6381 76.1145L41.406 77.8572C41.0695 78.2409 40.7727 78.6571 40.5088 79.0928L37.4809 76.1145ZM51.3274 61.5483C51.1691 61.7044 50.3116 62.5432 50.173 62.7123C45.0408 60.9436 40.0405 65.8076 41.848 70.9188C41.7292 71.0098 40.7793 71.9527 40.6737 72.0633C37.791 65.8336 43.8863 58.6156 51.3274 61.5483ZM51.9409 61.867C52.152 61.9775 52.726 62.3482 53.2075 62.7448L52.1257 63.8178C51.6969 63.4666 51.2483 63.187 50.8129 62.9854L51.9409 61.867ZM55.4504 58.401L58.4849 61.3923C58.0363 61.6524 57.6141 61.945 57.2249 62.2766L55.5164 60.5989C55.4702 60.6249 55.4834 60.6249 55.4042 60.5729L53.6825 62.2766C53.3394 61.984 52.8975 61.6719 52.4225 61.3923L55.4504 58.401ZM60.0945 62.9854C60.0945 62.9854 59.448 63.2716 58.7817 63.8178L57.6933 62.7448C58.1221 62.3872 58.5706 62.088 58.9665 61.867L60.0945 62.9854ZM69.0199 73.9101L67.9314 72.8436C68.4196 72.2649 68.5185 72.0243 68.7758 71.5496L69.9104 72.6615C69.6861 73.0517 69.3761 73.4939 69.0199 73.9101ZM69.0396 74.8465L70.326 76.121L69.0396 77.389C66.9551 75.3342 66.9485 76.8948 69.0396 74.8465ZM67.938 79.3984L69.0199 78.3254C69.3893 78.7546 69.7125 79.2228 69.9104 79.574C69.574 79.9056 69.7257 79.756 68.7824 80.6924C68.5713 80.2697 68.2876 79.8146 67.938 79.3984ZM61.5458 82.123C62.9377 82.8318 64.6528 83.0724 66.3152 82.6693C68.6109 82.1165 68.4196 81.2061 68.6372 82.2726C69.508 86.6424 65.4049 90.2515 61.15 88.9639C62.5023 86.9611 62.687 84.321 61.5458 82.123ZM42.4153 81.7264C43.7742 82.6237 45.4432 83.0399 47.1847 82.7993C49.6519 82.4612 49.5331 81.4598 48.9988 82.9424C48.2732 84.9647 48.5634 87.2082 49.7508 88.9639C45.2519 90.3295 41.0168 86.2133 42.4153 81.7264ZM41.8875 78.3254L42.9694 79.3919C42.5142 79.9381 42.3955 80.1982 42.125 80.6859L40.9904 79.5675C41.2279 79.1643 41.5313 78.7286 41.8875 78.3254ZM41.8611 77.389L40.5748 76.1145C41.9073 74.8009 41.8611 74.8465 41.8611 74.8465C43.9589 76.9013 43.9457 75.3407 41.8611 77.389ZM42.9694 72.8371L41.8809 73.9101C41.7358 73.767 41.2938 73.1882 40.9904 72.6615L42.1184 71.5431C42.3295 71.9722 42.6132 72.4209 42.9694 72.8371ZM49.355 70.1059C49.355 70.1059 45.9115 68.1941 42.4153 70.5026C41.03 66.0547 45.2189 61.893 49.7508 63.2716C48.4051 65.2614 48.2138 67.908 49.355 70.1059ZM43.4707 79.8146C45.43 81.2126 47.9301 80.9135 49.4936 79.3724C50.5556 78.3319 51.2747 77.6231 52.3367 76.5762C52.5874 76.3226 52.594 75.9129 52.3367 75.6593C49.4342 72.7981 48.57 71.517 46.215 71.517C45.1925 71.517 44.1304 71.9202 43.4707 72.4209C43.1409 72.0308 42.8639 71.5951 42.6528 71.1269L43.418 70.6782C45.7466 69.5077 48.6624 69.8849 50.582 71.7837L53.4252 74.5798C54.2696 75.4057 54.2696 76.8233 53.4252 77.6556L50.582 80.4518C48.6426 82.3636 45.4432 82.9359 42.6528 81.1086C42.877 80.6404 43.1211 80.2307 43.4707 79.8146ZM49.9289 78.0198L49.0252 78.9172C47.6399 80.2763 45.4959 80.4388 43.9193 79.3334C45.4036 77.8637 47.7454 77.259 49.9289 78.0198ZM43.9193 72.9021C44.2294 72.6875 44.5856 72.5055 44.9748 72.3754C47.5937 71.53 49.045 73.3378 49.9355 74.2157C47.8906 74.9245 45.5751 74.4888 43.9193 72.9021ZM50.4501 74.7229L51.8684 76.1145L50.4501 77.5126C47.9103 76.4982 45.1859 77.1744 43.4114 78.9107C42.191 77.7077 42.3427 77.8377 42.3427 77.8377C43.3322 76.8688 44.2294 76.4526 44.889 76.1145C44.2294 75.7828 43.3322 75.3667 42.3361 74.3913L43.4114 73.3248C45.1859 75.0545 47.9103 75.7438 50.4501 74.7229ZM54.5664 75.2496C55.1733 75.4317 55.7011 75.4447 56.3344 75.2496C56.3344 75.2496 56.0177 75.9974 56.3344 76.9859C55.7143 76.7843 55.1535 76.8103 54.5664 76.9859C54.8831 76.0625 54.5664 75.2496 54.5664 75.2496ZM63.7095 69.4362C61.2159 69.7808 61.3677 70.7887 61.9086 69.2736C62.6144 67.2772 62.344 65.0403 61.15 63.2716C65.6555 61.906 69.884 66.0287 68.4855 70.5026C67.1332 69.6117 65.4642 69.1956 63.7095 69.4362ZM67.43 72.4209C66.9617 72.0828 66.5263 71.8747 65.9722 71.7121C62.7332 70.7952 61.2423 73.0192 58.5641 75.6593C58.3068 75.9129 58.3068 76.3226 58.5641 76.5762C61.4732 79.4374 62.3308 80.7119 64.6924 80.7119C65.583 80.7119 66.5857 80.4193 67.43 79.8081C67.8259 80.3023 68.0304 80.6404 68.2414 81.1086C65.4774 82.9294 62.2648 82.3766 60.3188 80.4518L57.4756 77.6556C56.6378 76.8298 56.6312 75.4122 57.4756 74.5798L60.3188 71.7837C62.2384 69.8914 65.1542 69.5077 67.4828 70.6782L68.2414 71.1269C67.9842 71.6991 67.5884 72.2714 67.43 72.4209ZM60.9653 74.2157L61.8756 73.3183C63.2609 71.9527 65.4115 71.7967 66.9881 72.9021L66.4405 73.3638C64.8969 74.5343 62.8519 74.8725 60.9653 74.2157ZM66.9815 79.3268C67.0079 79.3529 66.2097 79.8601 65.3323 80.0096C63.063 80.3738 61.9086 78.9497 60.9653 78.0198C63.03 77.3045 65.3389 77.7597 66.9815 79.3268ZM60.4507 77.5126L59.039 76.1145L60.4507 74.7229C62.8783 75.6918 65.616 75.1521 67.4894 73.3248L68.5713 74.3848C67.6148 75.3212 66.7704 75.7308 66.0118 76.1145C66.6714 76.4526 67.5422 76.8493 68.5713 77.8442C67.9182 78.488 68.1689 78.2409 67.4894 78.9107C65.6621 77.1224 62.9311 76.5177 60.4507 77.5126ZM50.925 68.1096C51.3209 69.6963 52.0729 70.184 54.982 73.0452C55.2129 73.2793 55.6087 73.3053 55.8858 73.0712C55.9452 73.0322 57.2909 71.6926 57.3437 71.6471C58.7092 70.301 59.9164 69.4167 60.0879 67.3943C60.1802 66.2693 59.8504 65.1769 59.2105 64.3055C59.6195 63.9934 59.9494 63.7528 60.5167 63.5057C62.0603 65.6646 62.0141 68.6363 60.3452 70.7562C59.9428 71.2699 57.0138 74.1181 57.0138 74.1181C56.2024 74.918 54.705 74.918 53.8936 74.1181C51.2681 71.5366 48.7283 69.7808 49.3418 66.0417C49.487 65.1639 49.83 64.2795 50.3841 63.5057C50.8459 63.7202 51.2417 63.9413 51.6903 64.299C51.6903 64.299 50.3775 65.8857 50.925 68.1096ZM53.5176 70.6782C52.6336 69.8068 51.3011 68.7599 51.4726 66.6985C51.5517 65.6776 52.1388 64.7022 52.1916 64.7542C53.7155 66.3083 54.2696 68.5713 53.5176 70.6782ZM58.7092 64.7542C59.2633 65.528 59.5272 66.4644 59.4084 67.4593C59.2303 69.085 58.2342 69.8458 57.3832 70.6782C56.6642 68.6753 57.1062 66.3929 58.7092 64.7542ZM54.1574 62.7318C54.6852 62.2116 55.1733 61.7239 55.4504 61.4573C55.4504 61.4573 55.4372 61.4378 56.7434 62.7318C54.6456 64.7932 56.2486 64.8062 54.1574 62.7318ZM55.4504 65.7231C55.7868 65.0728 56.2156 64.1754 57.2117 63.187C57.6141 63.5837 57.9901 63.9608 58.287 64.2535C56.3871 66.1458 55.9188 68.8574 56.8621 71.1659L55.4504 72.5835L54.0321 71.1919C54.9952 68.8574 54.5137 66.1458 52.6138 64.2535L53.7023 63.2065C54.6918 64.1819 55.114 65.0728 55.4504 65.7231ZM59.6459 87.2212C60.1077 86.2783 60.2396 85.1468 59.956 84.0544C59.547 82.5132 58.8147 82.0385 55.9188 79.1903C55.6615 78.9367 55.2393 78.9302 54.982 79.1903C52.1125 82.0125 52.0003 82.0645 51.6243 82.5977C49.6915 85.3419 51.6903 87.9365 51.6903 87.9365C51.2945 88.2486 50.8591 88.5152 50.3841 88.7298C49.3748 87.3122 49.0186 85.485 49.4342 83.7747C49.9355 81.7069 50.9844 80.972 53.8936 78.1108C54.7314 77.285 56.1694 77.285 57.0138 78.1108C59.8966 80.9525 60.9653 81.7069 61.4666 83.7747C61.8756 85.4654 61.5788 87.0911 60.5167 88.7298C60.0483 88.5152 59.6063 88.2486 59.2105 87.93C59.2501 87.891 59.4876 87.5463 59.6459 87.2212ZM57.3832 81.5508C58.2738 82.4222 58.8807 82.8774 59.2435 84.0153C59.6459 85.2509 59.4084 86.5189 58.7158 87.4813C57.0798 85.8166 56.6708 83.4496 57.3832 81.5508ZM52.1916 87.4813C51.6705 86.7465 51.4066 85.8556 51.4726 84.9257C51.6045 83.183 52.6402 82.4157 53.5176 81.5508C54.2498 83.3586 53.8012 85.8881 52.1916 87.4813ZM56.7434 89.5037L55.4504 90.7782C54.0783 89.4256 54.1574 89.5037 54.1574 89.5037C56.242 87.4358 54.6588 87.4423 56.7434 89.5037ZM56.3212 88.0015C54.9359 86.0767 55.9649 86.0767 54.5796 88.0015C54.3751 88.2876 54.0255 88.7168 53.6957 89.0485C53.4582 88.8144 52.693 88.06 52.6138 87.982C54.4939 86.1287 54.9952 83.3846 54.0321 81.0436L55.457 79.652L56.8687 81.0436C55.8858 83.4366 56.4333 86.1352 58.287 87.982C58.0165 88.2486 57.5284 88.7363 57.2117 89.0485C56.8819 88.7168 56.5257 88.2941 56.3212 88.0015ZM70.2337 72.0568C70.0028 71.8292 69.2771 71.1009 69.0528 70.9188C70.8603 65.8206 65.86 60.9436 60.7278 62.7123C60.6024 62.5628 59.7119 61.6914 59.5668 61.5548C66.2888 58.5245 73.2945 65.4175 70.2337 72.0568ZM59.0852 61.0736L55.4504 57.4841L51.809 61.0736C44.4471 57.5101 36.5574 65.1899 40.1856 72.538L36.5442 76.1145L40.1856 79.6975C36.5376 87.0196 44.4405 94.7319 51.8156 91.1619L55.4504 94.7514L59.0852 91.1619C66.4999 94.7514 74.3434 86.9741 70.7152 79.6975L74.3566 76.1145L70.7152 72.538C74.3632 65.2094 66.4471 57.5101 59.0852 61.0736Z" fill="white"/>
<path d="M81.0064 77.5581C80.2676 76.7388 80.2676 75.4967 81.0064 74.6709C81.4484 75.2496 81.9959 75.7373 82.6226 76.1145C81.9959 76.4981 81.4484 76.9859 81.0064 77.5581ZM81.1317 73.6955C80.4721 74.2352 79.7926 74.8725 79.7926 76.1145C79.7926 77.246 80.3533 77.9092 81.1317 78.54C82.0553 77.1549 82.5764 76.8233 84.0739 76.1145C82.6688 75.4512 82.0949 75.1456 81.1317 73.6955Z" fill="white"/>
<path d="M29.8949 74.6709C30.6337 75.4967 30.6337 76.7388 29.8949 77.5581C29.4529 76.9859 28.9054 76.4981 28.2787 76.1145C28.9054 75.7373 29.4529 75.2496 29.8949 74.6709ZM29.7695 78.54C30.5282 77.9223 31.1087 77.2785 31.1087 76.1145C31.1087 74.983 30.5413 74.3197 29.7695 73.6955C28.8394 75.0871 28.3183 75.4122 26.8274 76.1145C28.2259 76.7778 28.8064 77.0834 29.7695 78.54Z" fill="white"/>
<path d="M47.1255 18.0514C53.5573 11.4967 48.2997 16.8549 55.4505 9.56533C57.4955 11.6462 63.7294 17.9994 63.7294 17.9994C64.244 18.5261 64.6332 19.6186 64.4749 20.659C63.9801 23.9169 59.3888 24.5542 58.0628 21.4524C57.0931 19.1634 53.8014 19.1894 52.8382 21.4524C51.9807 23.4487 49.5201 24.0079 47.9237 22.9545C46.0502 21.7125 46.037 19.3715 47.1255 18.0514ZM49.7378 24.1185C51.4727 24.1185 52.8514 23.0976 53.4451 21.706C54.184 19.9697 56.7105 19.9502 57.4559 21.706C59.0392 25.406 64.5342 24.6582 65.1279 20.7566C65.2994 19.6121 64.9498 18.4351 64.2506 17.6027C55.3648 8.5444 72.7471 26.2579 55.4505 8.62894C46.2547 17.9994 46.888 17.3556 46.6307 17.6222C44.5264 20.1583 46.2943 24.1185 49.7378 24.1185Z" fill="white"/>
<path d="M63.7753 134.184C55.2392 142.885 58.5639 139.497 55.4503 142.67C55.3447 142.56 47.244 134.308 47.1384 134.204C46.0104 132.838 46.0697 130.51 47.9234 129.281C49.5198 128.221 51.987 128.787 52.838 130.777C53.8077 133.072 57.0995 133.04 58.0626 130.777C58.9136 128.787 61.3807 128.221 62.9705 129.281C64.8506 130.523 64.8638 132.864 63.7753 134.184ZM63.34 128.741C61.4401 127.48 58.4848 128.123 57.4557 130.53C56.7169 132.266 54.1903 132.285 53.4449 130.53C51.8551 126.816 46.36 127.577 45.7729 131.479C45.6014 132.63 45.9576 133.8 46.6503 134.633C52.3366 140.433 40.4493 128.319 55.4503 143.607C72.0344 126.706 55.2722 143.789 64.2701 134.613C65.695 132.897 65.4641 130.146 63.34 128.741Z" fill="white"/>
<path d="M103.488 76.1145C101.054 78.553 95.862 83.7162 93.5664 85.9986C91.6863 87.5073 88.6848 87.2862 87.1346 85.0102C85.6503 82.8318 86.5343 79.7235 89.1004 78.657C89.7601 78.3839 89.5622 77.4085 88.8497 77.4085H85.7361C83.9154 77.4085 82.3849 78.6765 82.0551 80.4063C79.9112 80.1202 78.2686 78.2929 78.262 76.1145C78.2686 73.9425 79.9112 72.1153 82.0551 71.8226C82.3849 73.5589 83.9154 74.8269 85.7361 74.8269H88.8497C89.5556 74.8269 89.7667 73.8515 89.1004 73.5784C86.5409 72.5119 85.6503 69.4101 87.1346 67.2252C88.9421 64.5721 92.3724 65.0273 93.573 66.2238C94.9649 67.6154 102.109 74.7359 103.488 76.1145ZM98.9493 87.7674C93.6587 93.5678 90.367 97.0598 90.367 97.0598C88.322 95.5187 88.0911 92.716 89.5886 90.9017C89.7799 90.7131 98.758 81.7653 98.9493 81.5768V87.7674ZM98.9493 105.923C97.0428 105.637 95.5322 104.128 95.2683 102.236C97.0297 101.911 98.316 100.409 98.316 98.614V95.5447C98.316 94.8424 97.3199 94.6603 97.0428 95.2976C96.0072 97.7231 93.1112 98.5815 90.9211 97.411C90.9211 97.411 93.3091 94.9009 98.9493 88.7363V105.923ZM98.9493 111.359C97.4716 109.747 93.1376 105.006 91.6137 103.433C90.6902 102.483 90.0041 101.631 90.0041 100.051C90.0041 99.3423 90.1955 98.5945 90.5583 97.9507C93.0057 99.2968 96.4228 98.4254 97.6563 95.5447V98.614C97.6563 100.181 96.4623 101.482 94.8725 101.638L94.5559 101.67C94.7538 104.544 96.68 106.281 98.9493 106.58V111.359ZM98.9493 114.585C97.9268 113.46 91.053 105.923 89.7469 104.629C88.3748 103.283 87.6359 101.404 87.8734 99.3098C88.0053 98.3214 87.8074 98.8611 89.3643 99.765C89.2389 102.008 90.3868 103.094 91.4356 104.2C93.1772 106.021 97.2408 110.462 98.9493 112.335V114.585ZM98.9493 118.74C97.9202 117.615 91.0398 110.065 89.7469 108.791C88.2494 107.315 87.57 105.266 87.9064 103.192C88.599 104.584 88.0977 103.66 98.9493 115.554V118.74ZM98.9493 122.895C97.9202 121.77 91.0398 114.221 89.7469 112.946C88.2956 111.515 87.5634 109.487 87.9064 107.347C88.5924 108.732 87.88 107.581 98.9493 119.715V122.895ZM98.9493 127.057C97.9202 125.932 91.0398 118.376 89.7469 117.101C88.2956 115.671 87.5634 113.642 87.9064 111.502C88.5924 112.888 87.88 111.737 98.9493 123.871V127.057ZM98.9493 131.212C97.9202 130.087 91.0398 122.531 89.7469 121.257C88.2956 119.826 87.5634 117.797 87.9064 115.658C88.5924 117.043 87.88 115.892 98.9493 128.026V131.212ZM98.9493 135.368C97.9202 134.243 91.0398 126.686 89.7469 125.412C88.2956 123.981 87.5634 121.952 87.9064 119.819C88.5924 121.205 87.88 120.047 98.9493 132.181V135.368ZM90.9211 54.8244C93.1376 53.6214 96.0204 54.5383 97.0428 56.9378C97.3199 57.5816 98.316 57.3865 98.316 56.6842V53.6214C98.316 51.8267 97.0297 50.318 95.2683 49.9929C95.5256 48.1721 96.9703 46.631 98.9031 46.3188C98.9691 46.3058 98.9493 63.4276 98.9493 63.4926C93.474 57.5036 90.9211 54.8244 90.9211 54.8244ZM89.8854 61.6263C88.0119 59.76 88.2692 56.7623 90.367 55.1756C90.367 55.1756 93.9754 59.0187 98.9493 64.468V70.6586C98.7382 70.4506 90.0965 61.8344 89.8854 61.6263ZM89.45 53.1727C89.5424 53.6409 89.7403 54.1807 90.0041 54.6294C87.9064 56.0144 87.1346 59.3959 89.1202 61.7889C90.301 62.9659 89.958 62.2441 88.0977 62.9724L87.913 62.7188C85.3469 59.617 86.31 55.013 89.45 53.1727ZM93.4872 45.8506C90.4725 49.102 89.2191 49.8824 89.3643 52.4639C88.9025 52.7371 88.5265 52.9842 87.9724 53.5109C87.9724 53.5109 87.0818 50.227 89.7469 47.5999C91.0332 46.3318 97.7949 38.9187 98.9493 37.6507V39.9006C97.3397 41.6629 95.2222 43.9713 93.4872 45.8506ZM94.5559 50.5651L94.8725 50.5977C96.4623 50.7537 97.6563 52.0543 97.6563 53.6214V56.6842C96.4359 53.836 93.0386 52.9126 90.5583 54.2847C89.6413 52.659 89.8524 50.5456 91.2905 49.128C92.4515 47.9835 97.8542 42.0725 98.9493 40.876C98.9493 45.8181 98.9493 45.6556 98.9493 45.6556C96.9505 45.9157 94.767 47.4308 94.5559 50.5651ZM89.7469 43.4446C91.0332 42.1766 97.8279 34.7179 98.9493 33.4954V36.6753C88.0185 48.6533 88.5265 47.795 87.9064 49.0435C87.8734 49.102 87.8206 48.1071 87.8206 48.0291C87.8206 46.2993 88.5067 44.6671 89.7469 43.4446ZM98.9493 29.3337V32.52C87.9921 44.5241 88.599 43.4836 87.9064 44.8882C87.57 42.8074 88.256 40.759 89.7469 39.2894C91.0332 38.0148 97.8279 30.5627 98.9493 29.3337ZM89.7469 35.1341C91.0332 33.8596 97.8279 26.4074 98.9493 25.1784V28.3647C87.9921 40.3688 88.599 39.3284 87.9064 40.733C87.5634 38.6001 88.289 36.5712 89.7469 35.1341ZM89.7469 26.8171C91.0332 25.549 97.8279 18.0904 98.9493 16.8679V20.0542C87.814 32.2469 88.599 31.0309 87.9064 32.416C87.5634 30.2896 88.289 28.2542 89.7469 26.8171ZM89.7469 30.9723C91.0332 29.7043 97.8279 22.2522 98.9493 21.0231V24.2095C87.9921 36.2136 88.599 35.1731 87.9064 36.5712C87.5634 34.4448 88.289 32.4095 89.7469 30.9723ZM89.1004 90.466C87.2797 92.664 87.7019 95.9348 90.0041 97.6061C89.7337 98.0678 89.5358 98.614 89.45 99.0627C86.0065 96.8257 85.5316 92.3908 87.9262 89.4971L88.1043 89.263C89.958 89.9913 90.3076 89.263 89.1004 90.466ZM86.4089 72.0242C86.9631 72.9996 87.8074 73.741 88.8497 74.1766H85.7361C84.1463 74.1766 82.8269 72.9996 82.6686 71.439L82.6356 71.1268C75.9267 71.5625 75.9597 80.6794 82.6356 81.1086L82.6686 80.7964C82.8269 79.2358 84.1463 78.0588 85.7361 78.0588H88.8497C87.8074 78.488 86.9631 79.2358 86.4089 80.2047C84.2452 83.9828 87.7481 88.6193 92.1679 87.4097C91.7787 87.7934 91.1916 88.3852 90.4725 89.1005C87.2797 88.9249 84.4365 86.5904 84.2254 82.7213C82.0947 82.5847 81.7384 82.5912 80.9666 82.3896C78.1432 81.6483 76.0785 79.0992 76.0785 76.1145C76.0785 72.7135 78.7765 69.8653 82.22 69.6442L84.2254 69.5142C84.4431 65.5865 87.3391 63.291 90.4725 63.135C90.8287 63.4861 91.2509 63.9088 91.6995 64.364C92.5439 65.2028 92.1811 64.6241 90.8089 64.6241C86.9762 64.6241 84.5025 68.7078 86.4089 72.0242ZM98.9493 137.826C98.9493 139.341 97.7355 140.804 95.9808 140.901C94.6812 139.744 86.2836 132.318 84.9445 130.991C81.8242 127.915 77.8926 129.157 77.8926 129.157C75.6167 127.298 72.4569 127.057 69.9435 128.358C68.3207 129.196 69.4422 129.352 68.0766 127.395C65.1411 123.162 59.1711 122.603 55.4505 125.997C51.7168 122.59 45.7401 123.181 42.8244 127.395C41.3005 129.58 42.8112 129.099 40.4166 128.104C37.6064 126.94 34.5257 127.753 33.0019 129.157C30.5611 128.501 27.8696 129.105 25.9566 130.991C24.6174 132.311 16.2 139.763 14.9202 140.901C13.6273 140.836 12.4795 139.984 12.0902 138.697C11.8923 138.047 11.9451 138.105 11.9451 136.343C13.1853 134.984 20.3164 127.161 21.6225 125.874C23.5949 123.929 24.1754 121.172 23.43 118.753C23.8456 117.413 23.8456 115.95 23.43 114.598C23.8456 113.252 23.8456 111.789 23.43 110.442C23.8456 109.096 23.8456 107.633 23.43 106.287C24.1227 104.031 23.43 102.132 23.43 102.132C24.0171 100.259 23.6147 98.7896 23.4762 98.1393C25.6069 95.5967 25.7191 91.7796 23.5092 89.12L23.4102 88.9834C25.4288 87.956 27.045 85.9011 27.2957 83.3325L28.7272 83.2415C32.5137 82.9944 35.4822 79.8665 35.4822 76.1145C35.4822 72.3689 32.5137 69.241 28.7272 68.9939L27.2957 68.9029C27.0516 66.3603 25.4552 64.2859 23.4102 63.252L23.496 63.1285C25.8774 60.2542 25.4354 56.255 23.4762 54.0961C23.8522 52.7436 23.8126 51.3455 23.4366 50.1099C23.4366 50.1099 24.1227 48.2046 23.43 45.9482C23.839 44.6281 23.8522 43.165 23.43 41.7929C23.8456 40.4469 23.8456 38.9837 23.43 37.6377C23.8456 36.2851 23.8456 34.8285 23.43 33.4824C24.1754 31.0634 23.5949 28.3062 21.6225 26.3619C20.3098 25.0613 13.1853 17.2515 11.9451 15.886C11.9451 14.4554 11.8198 13.6815 12.4597 12.7256C13.0072 11.9063 13.9109 11.3861 14.9136 11.334C16.2792 12.537 24.624 19.9242 25.9566 21.2442C27.9949 23.2536 30.9833 23.7348 33.0019 23.0715C35.6471 25.2304 39.3941 25.1784 41.9602 23.2471C43.8733 28.4363 51.0109 30.2831 55.4505 26.2383C59.9693 30.3611 67.1135 28.2997 68.9408 23.2471C71.6587 25.2564 75.3528 25.1524 77.8992 23.0715C80.0959 23.7218 82.9391 23.2211 84.9445 21.2442C86.2836 19.9177 94.7802 12.4005 95.9808 11.334C96.8054 11.3795 97.5442 11.7372 98.0785 12.2834C99.1274 13.3629 98.9493 14.4488 98.9493 15.8925C97.7025 17.2645 90.5913 25.0613 89.2785 26.3619C87.2929 28.3127 86.7322 31.0764 87.471 33.4824C87.0554 34.8285 87.0554 36.2851 87.471 37.6377C87.0554 38.9837 87.0554 40.4469 87.471 41.7929C87.0554 43.139 87.0554 44.6021 87.471 45.9482C87.0554 47.2943 87.0554 48.7574 87.471 50.1034C86.8113 52.2559 87.4248 54.0961 87.4248 54.0961C85.2941 56.6387 85.1819 60.4493 87.3918 63.109L87.4908 63.252C85.4656 64.2794 83.856 66.3473 83.6053 68.9029L82.1738 68.9939C78.3873 69.241 75.4188 72.3689 75.4188 76.121C75.4188 79.8665 78.3873 82.9944 82.1738 83.2415L83.6053 83.3325C83.8494 85.8621 85.4458 87.943 87.4908 88.9834L87.405 89.107C85.1753 91.7926 85.2941 95.5967 87.4248 98.1393C87.0488 99.4919 87.095 100.89 87.4644 102.112C87.4644 102.112 86.7849 104.057 87.471 106.287C87.0554 107.633 87.0554 109.096 87.471 110.442C87.0554 111.789 87.0554 113.252 87.471 114.598C87.0554 115.944 87.0554 117.407 87.471 118.753C86.7322 121.146 87.2863 123.916 89.2785 125.874C90.5913 127.168 97.7619 135.029 98.9493 136.336V137.826ZM92.7286 140.914C91.429 139.763 84.6278 133.729 83.3942 132.513C81.9232 131.063 79.7001 130.549 77.345 131.706C77.1075 131.381 76.6524 130.92 76.2236 130.614C78.6512 129.021 82.154 129.157 84.4761 131.453C85.802 132.753 93.7577 139.802 95.0177 140.914H92.7286ZM86.4881 140.914C86.3759 138.866 85.0038 137.162 83.1765 136.506C82.5169 136.271 82.0683 136.239 81.468 136.2L81.4416 136.512C81.2833 138.073 79.9639 139.25 78.3675 139.25H75.2605C78.0905 138.066 79.1261 134.743 77.7013 132.253C77.6881 132.22 78.4929 131.837 79.3109 131.739C81.3954 131.498 82.5367 132.61 83.3151 133.339C85.0104 134.938 90.0041 139.373 91.7457 140.914H86.4881ZM67.9117 140.914C73.7432 135.738 77.1537 132.61 77.1537 132.61C77.8992 133.956 77.8134 135.576 77.1273 136.785C75.9531 138.827 74.4095 138.385 74.614 139.38C74.6734 139.679 74.9504 139.9 75.2605 139.9H78.3675C80.1948 139.9 81.7187 138.632 82.0485 136.896C84.0869 137.169 85.6965 138.853 85.8284 140.914H67.9117ZM61.1303 140.914C66.2032 135.738 63.2017 138.801 70.5372 131.303C72.3645 129.84 75.2143 130.035 76.7909 132.064L66.9288 140.914H61.1303ZM55.4505 145.778C45.7401 135.868 45.4499 135.563 45.4499 135.563C43.4775 133.189 43.8073 129.411 46.7098 127.486C49.4079 125.704 53.4517 126.667 54.8502 129.938C55.0679 130.451 55.8199 130.477 56.0508 129.938C57.4493 126.667 61.4997 125.704 64.1978 127.486C66.2493 128.852 67.1267 131.232 66.4934 133.54C66.0119 135.309 66.0185 134.99 55.4505 145.778ZM43.9722 140.914C38.1671 135.771 34.1101 132.071 34.1101 132.071C36.0561 129.814 38.7542 130.016 40.3308 131.284C46.1821 137.247 44.6781 135.719 49.7707 140.914H43.9722ZM25.0726 140.914C25.0726 139.367 26.4579 137.214 28.8525 136.896C29.1824 138.632 30.7128 139.9 32.5335 139.9H35.6405C36.353 139.9 36.5575 138.925 35.8978 138.651C34.0573 137.884 33.0085 136.031 33.2525 134.119C33.3581 133.313 33.7275 132.591 33.7473 132.61C33.7473 132.61 36.6367 135.277 42.9893 140.914H25.0726ZM19.1553 140.914C21.1014 139.191 25.2837 135.472 27.177 133.722C27.8366 133.118 30.0399 130.523 33.1998 132.253C31.7815 134.73 32.7974 138.06 35.6405 139.25H32.5335C30.9371 139.25 29.6177 138.073 29.466 136.512L29.433 136.2C26.3062 136.395 24.5449 138.58 24.4129 140.914H19.1553ZM43.5896 132.721C43.6358 133.144 43.7215 133.547 43.8403 133.924L40.7794 130.803C39.2687 129.587 37.0918 129.333 35.2909 130.25C34.9083 129.957 34.3344 129.639 33.7539 129.411C36.1881 127.662 39.5194 127.85 41.7161 129.606C44.1569 132.097 43.4049 131.037 43.5896 132.721ZM67.1927 130.699C65.8338 124.814 57.6736 124.332 55.4571 129.691C53.1483 124.28 45.0475 124.866 43.7083 130.705L42.4879 129.463C44.302 124.54 50.8658 122.388 55.4505 126.907C59.9693 122.453 66.533 124.443 68.4197 129.457C67.1201 130.777 67.1927 130.699 67.1927 130.699ZM69.1585 129.632C71.3222 127.896 74.3963 127.733 76.6986 129.118C77.4968 129.6 77.0614 129.209 75.6101 130.25C74.0467 129.405 71.7774 129.47 70.0952 130.829C66.4604 134.535 67.0541 134.086 67.2125 133.339C67.7534 130.796 66.3747 132.474 69.1585 129.632ZM15.89 140.914C17.1433 139.802 25.099 132.753 26.4249 131.453C28.7272 129.183 32.2102 129.008 34.6774 130.614C34.4597 130.77 34.242 130.959 34.0507 131.147C33.1602 132.025 34.0507 131.68 32.4082 131.238C30.6996 130.777 28.8261 131.212 27.5068 132.513C26.2732 133.729 19.472 139.763 18.1724 140.914H15.89ZM11.9451 64.4745C17.0642 58.8692 20.5341 55.1756 20.5341 55.1756C22.612 56.7428 22.7835 59.5519 21.3125 61.3272L11.9451 70.6651V64.4745ZM11.9451 46.3058C13.8582 46.592 15.3688 48.1071 15.6327 49.9929C13.878 50.318 12.585 51.8267 12.585 53.6214V56.6842C12.585 57.3865 13.5811 57.5816 13.8516 56.9378C14.9334 54.4213 17.902 53.7125 19.9799 54.8244C19.9799 54.8244 17.4336 57.4971 11.9451 63.5056C11.9451 57.1004 11.9451 60.5274 11.9451 46.3058ZM19.6105 49.128C21.0486 50.5456 21.2531 52.6655 20.3427 54.2847C17.3478 52.8086 14.3265 54.1612 13.2447 56.6842V53.6214C13.2447 52.0543 14.4453 50.7537 16.0219 50.5977L16.3385 50.5651C16.1472 47.6324 14.1418 45.9417 11.9451 45.6556V40.863C13.0468 42.0725 18.4429 47.9835 19.6105 49.128ZM21.1541 47.5999C22.6582 49.0825 23.4102 51.2154 22.9287 53.5109C22.3745 52.9842 21.9985 52.7371 21.5433 52.4639C21.6951 49.6548 20.8507 49.6483 11.9451 39.8941V37.6377C13.0666 38.8732 19.8678 46.3318 21.1541 47.5999ZM22.8033 62.9724C20.8309 62.1986 20.6198 63.0244 21.8006 61.7629C23.5422 59.6625 23.3047 56.4176 20.8969 54.6294C21.1673 54.1677 21.3586 53.6344 21.4576 53.1727C24.4921 54.9805 25.6267 59.5259 22.9748 62.7383L22.8033 62.9724ZM20.4285 89.1005C19.34 88.008 19.6897 88.3591 18.7397 87.4097C23.1529 88.6193 26.6558 83.9828 24.4987 80.2047C23.938 79.2358 23.0936 78.488 22.0579 78.0588H25.165C26.7548 78.0588 28.0741 79.2358 28.2324 80.7964L28.2654 81.1086C34.9479 80.6794 34.9677 71.5625 28.2654 71.1268L28.2324 71.439C28.0741 72.9996 26.7548 74.1766 25.165 74.1766H22.0579C23.0936 73.741 23.938 72.9996 24.4987 72.0242C26.6624 68.2396 23.1398 63.6162 18.7397 64.8192L20.4285 63.135C23.6081 63.291 26.4645 65.645 26.6756 69.5142C28.8195 69.6507 29.1692 69.6442 29.9344 69.8458C32.7578 70.5871 34.8226 73.1297 34.8226 76.1145C34.8226 79.5219 32.1245 82.3701 28.6876 82.5912L26.6756 82.7213C26.4645 86.5319 23.7071 88.9184 20.4285 89.1005ZM21.4576 99.0627C21.3652 98.614 21.1673 98.0678 20.8969 97.6061C23.4498 95.7593 23.4894 92.1437 21.6357 90.297C20.6462 89.315 20.9892 89.9718 22.8033 89.2565L22.988 89.5166C25.3694 92.3908 24.8813 96.8387 21.4576 99.0627ZM21.1541 112.946C19.8612 114.221 12.9544 121.803 11.9451 122.908V119.722C22.9155 107.705 22.302 108.745 23.0012 107.347C23.3311 109.441 22.6384 111.483 21.1541 112.946ZM21.1541 117.101C19.8612 118.376 12.9544 125.958 11.9451 127.064V123.877C22.9155 111.86 22.302 112.901 23.0012 111.502C23.3311 113.596 22.6384 115.638 21.1541 117.101ZM21.1541 121.257C19.8612 122.531 12.9544 130.113 11.9451 131.219V128.032C22.9155 116.015 22.302 117.056 23.0012 115.658C23.3311 117.758 22.6384 119.8 21.1541 121.257ZM11.9451 132.188C23.1068 119.963 22.3086 121.205 23.0012 119.819C23.3311 121.913 22.6384 123.955 21.1541 125.412C19.8612 126.693 12.9544 134.269 11.9451 135.374V132.188ZM19.9799 97.411C17.8558 98.5425 14.9202 97.7816 13.8516 95.2976C13.5811 94.6603 12.585 94.8424 12.585 95.5447V98.614C12.585 100.409 13.878 101.911 15.6327 102.236C15.3688 104.128 13.8582 105.643 11.9451 105.923C11.9451 91.5715 11.9451 94.9269 11.9451 88.7298C17.4864 94.7969 19.9799 97.411 19.9799 97.411ZM20.5341 97.0598C20.5341 97.0598 17.328 93.6589 11.9451 87.7609V81.5638C14.1748 83.7877 19.782 89.3801 20.9892 90.5831C22.9419 92.5274 22.5856 95.5122 20.5341 97.0598ZM19.6105 103.107C18.5814 104.122 14.2738 108.823 11.9451 111.366V106.58C13.436 106.45 16.1076 105.149 16.3385 101.67L16.0219 101.638C14.4453 101.482 13.2447 100.181 13.2447 98.614V95.5447C14.4651 98.3994 17.8822 99.3098 20.3427 97.9507C21.2465 99.5504 21.0618 101.677 19.6105 103.107ZM21.1541 108.791C19.8612 110.065 12.9544 117.641 11.9451 118.747V115.567C22.8495 103.621 22.302 104.59 23.0012 103.192C23.3311 105.266 22.6516 107.315 21.1541 108.791ZM21.5433 99.765C21.9985 99.4984 22.3811 99.2447 22.9287 98.7245C23.4102 101.007 22.6648 103.14 21.1541 104.629C19.8546 105.917 13.1061 113.323 11.9451 114.591V112.341C13.4294 110.716 18.2912 105.396 19.815 103.829C21.009 102.607 21.6357 101.508 21.5433 99.765ZM21.1541 43.4446C22.7637 45.0313 23.3377 47.2357 22.9946 49.0435C22.302 47.6454 22.8429 48.6078 11.9451 36.6688V33.4889C13.0666 34.7179 19.8678 42.1766 21.1541 43.4446ZM21.1541 39.2894C22.6054 40.7135 23.3377 42.7488 23.0012 44.8882C22.3086 43.5032 23.054 44.6867 11.9451 32.5135V29.3271C13.0666 30.5627 19.8678 38.0148 21.1541 39.2894ZM21.1541 35.1341C22.612 36.5712 23.3377 38.6001 23.0012 40.733C22.3086 39.3479 23.0342 40.5054 11.9451 28.3582V25.1719C13.0666 26.4074 19.8678 33.8596 21.1541 35.1341ZM11.9451 20.0412V16.8614C13.0666 18.0904 19.8678 25.549 21.1541 26.8171C22.612 28.2542 23.3377 30.2896 23.0012 32.416C22.2954 31.0179 22.9089 32.0583 11.9451 20.0412ZM21.1541 30.9723C22.612 32.4095 23.3377 34.4448 23.0012 36.5712C22.3086 35.1926 23.0342 36.3501 11.9451 24.203V21.0166C13.0666 22.2456 19.8678 29.7043 21.1541 30.9723ZM7.41317 76.1145C9.72202 73.806 15.0654 68.4867 17.3346 66.2368C19.2147 64.7216 22.2162 64.9492 23.7664 67.2252C25.2507 69.4036 24.3667 72.5054 21.8006 73.5784C21.1409 73.8515 21.3389 74.8269 22.0579 74.8269H25.165C26.9856 74.8269 28.5161 73.5589 28.8459 71.8226C30.9899 72.1153 32.6324 73.9425 32.6324 76.1145C32.6324 78.2929 30.9899 80.1202 28.8459 80.4063C28.5161 78.6765 26.9856 77.4085 25.165 77.4085H22.0579C21.3389 77.4085 21.1409 78.3839 21.8006 78.657C24.3667 79.7235 25.2507 82.8253 23.7664 85.0102C22.2162 87.2862 19.2081 87.5073 17.3346 85.9986L7.41317 76.1145ZM18.1724 11.3145C19.4654 12.4655 26.2732 18.5066 27.5068 19.7161C28.7997 20.9906 30.6072 21.4393 32.3026 21.0231C34.1035 20.5744 33.1272 20.1778 34.0507 21.0882C34.242 21.2767 34.4531 21.4653 34.6708 21.6149L33.8858 22.0571C31.5044 23.1755 28.4831 22.8114 26.4249 20.7825C25.1254 19.5015 17.1763 12.459 15.8834 11.3145H18.1724ZM24.4129 11.3145C24.5317 13.4084 26.0489 15.8144 29.433 16.0355L29.466 15.7234C29.6177 14.1627 30.9371 12.9857 32.5335 12.9857C38.675 12.9857 33.4043 12.3224 32.639 16.7313C32.4345 17.9148 32.6588 19.0398 33.1998 19.9827C29.9146 21.6019 28.1467 19.3909 26.6228 18.0059C24.5844 16.1396 21.2201 13.1483 19.1553 11.3145H24.4129ZM42.9893 11.3145C36.663 16.9264 33.7473 19.625 33.7473 19.625C32.5401 17.4596 33.4504 14.6049 35.8978 13.584C36.5575 13.3109 36.353 12.3355 35.6405 12.3355H32.5335C30.7128 12.3355 29.1824 13.6035 28.8525 15.3332C26.5305 15.0276 25.0726 12.9532 25.0726 11.3145H42.9893ZM49.7773 11.3145C42.2373 19.0073 48.9923 12.1209 40.3638 20.9321C38.4442 22.4667 35.5746 22.1026 34.1101 20.1648C34.1101 20.1648 37.7185 16.8614 43.9788 11.3145H49.7773ZM55.4505 6.45697C66.2955 17.5312 65.7348 16.7768 66.2493 17.9994C67.2652 20.3989 66.5396 23.1951 64.1978 24.7427C61.4931 26.531 57.4493 25.5621 56.0508 22.2912C55.8331 21.784 55.0811 21.7514 54.8502 22.2912C53.4583 25.5425 49.4343 26.544 46.7098 24.7427C43.7149 22.7659 43.5698 18.9423 45.4433 16.6728C46.1953 15.912 55.0745 6.84063 55.4505 6.45697ZM66.9288 11.3145L76.7909 20.1648C75.2077 22.2066 72.3513 22.3822 70.5702 20.9516L61.1237 11.3145H66.9288ZM85.8284 11.321C85.6965 13.4019 84.0605 15.0666 82.0485 15.3332C81.7187 13.6035 80.1948 12.3355 78.3675 12.3355H75.2605C74.9504 12.3355 74.6734 12.5565 74.614 12.8557C74.4161 13.8506 75.9531 13.4084 77.1273 15.4503C77.8134 16.6598 77.8992 18.2855 77.1537 19.625C77.1537 19.625 74.3633 17.0369 67.9117 11.3145L85.8284 11.321ZM91.7457 11.3145C90.0107 12.8492 85.017 17.2906 83.3283 18.8772C82.6686 19.495 81.5142 20.7435 79.3109 20.4899C78.7765 20.4314 78.2026 20.2558 77.7013 19.9827C79.0734 17.8173 78.2818 14.2473 75.2605 12.9857H78.3675C79.9639 12.9857 81.2833 14.1627 81.4416 15.7234L81.468 16.0355C84.5684 15.8339 86.3562 13.6685 86.4881 11.3145H91.7457ZM67.3246 20.724C67.3576 20.3208 67.3576 19.9047 67.3114 19.495C67.1531 18.1034 66.1372 17.3621 70.1216 21.4328C71.6521 22.6618 73.8224 22.8959 75.6101 21.9855C76.0917 22.3302 76.6062 22.6098 77.1471 22.8244C74.7327 24.5541 71.4014 24.4046 69.1849 22.6228C67.2323 20.6395 67.3246 20.724 67.3246 20.724ZM43.7083 21.5303C45.0607 27.4153 53.2274 27.903 55.4439 22.5448C57.7528 27.9551 65.8535 27.3568 67.1927 21.5303C67.6149 21.9595 67.4433 21.784 68.4197 22.7724C66.5924 27.7535 59.9759 29.7888 55.4505 25.328C50.9713 29.7433 44.3746 27.8315 42.4879 22.7724L43.7083 21.5303ZM41.7425 22.6033C39.6052 24.32 36.5377 24.5216 34.2025 23.117C33.3911 22.6293 33.8924 23.0065 35.2909 21.9855C37.0325 22.8764 39.2094 22.6943 40.8058 21.4068C44.4406 17.6937 43.8403 18.1489 43.6885 18.8967C43.1542 21.4263 44.5197 19.7681 41.7425 22.6033ZM95.0177 11.3145C93.85 12.3485 85.7954 19.4885 84.4761 20.7825C82.2134 23.0195 78.7435 23.2601 76.2236 21.6214C76.2236 21.6214 76.8173 21.2182 77.345 20.5289C77.5561 20.685 78.3411 21.0101 79.08 21.1142C81.0788 21.4133 82.3915 20.659 83.6911 19.4365C85.3732 17.8433 90.9937 12.8557 92.7286 11.3145H95.0177ZM99.609 14.4098C99.609 12.342 97.907 10.6642 95.8093 10.6642H60.4904L55.4505 5.52057L50.4106 10.6642H15.0786C12.9874 10.6642 11.2854 12.342 11.2854 14.4098C11.2854 14.5139 11.2459 71.2569 11.3514 71.2569C9.41857 73.1882 7.07014 75.5097 6.48962 76.1275C6.549 76.1925 11.3712 80.9655 11.2854 80.9655V137.826C11.2854 139.887 12.9874 141.565 15.0786 141.565H50.4106L55.4505 146.708L60.4904 141.565H95.8093C97.907 141.565 99.609 139.887 99.609 137.826V80.9135C99.9784 80.5493 104.068 76.4786 104.418 76.1145L99.609 71.3154V14.4098Z" fill="white"/>
<path d="M100.42 76.1145C96.1391 80.3803 97.5706 78.9562 92.1546 84.36C91.5214 85.0103 89.8128 85.0753 88.9486 83.8072C88.2428 82.7668 88.6386 81.1931 89.9513 80.6469C91.7588 79.8926 92.2998 77.5516 90.8947 76.1145C92.2932 74.6839 91.7654 72.3429 89.9513 71.5886C88.6386 71.0423 88.2428 69.4622 88.9486 68.4282C89.8194 67.1537 91.5214 67.2317 92.1546 67.882C95.3079 71.0163 97.399 73.1037 100.42 76.1145ZM89.7007 72.1868C91.1981 72.8176 91.5214 74.8334 90.202 75.8609L89.8788 76.1145L90.202 76.3681C91.5214 77.402 91.1981 79.4179 89.7007 80.0487C87.9789 80.7575 87.4776 82.8058 88.4011 84.1649C89.5951 85.9206 91.8248 85.6345 92.6296 84.8087C95.9346 81.5183 97.9532 79.5024 101.35 76.1145C91.7786 66.5815 92.4185 66.9976 91.3564 66.8221C87.9261 66.2628 86.587 70.8993 89.7007 72.1868Z" fill="white"/>
</g>
<defs>
<clipPath id="clip0_3_3">
<rect width="112" height="152" rx="8" fill="white"/>
</clipPath>
</defs>
</svg>
