<svg width="1067" height="1057" viewBox="0 0 1067 1057" fill="none" xmlns="http://www.w3.org/2000/svg">
<mask id="mask0_118_130" style="mask-type:luminance" maskUnits="userSpaceOnUse" x="0" y="493" width="122" height="79">
<path d="M0 493.361H121.13V571.583H0V493.361Z" fill="white"/>
</mask>
<g mask="url(#mask0_118_130)">
<path fill-rule="evenodd" clip-rule="evenodd" d="M1.09135 553.948L2.57547 504.819C2.75008 498.512 8.07545 493.514 14.3611 493.71L107.141 496.526C113.448 496.722 118.424 502.026 118.25 508.333L116.765 557.462C116.569 563.77 111.265 568.768 104.958 568.571L12.1786 565.756C5.89292 565.559 0.894926 560.256 1.09135 553.948Z" fill="white"/>
</g>
<path fill-rule="evenodd" clip-rule="evenodd" d="M33.0867 542.577C33.2177 537.732 35.422 533.433 38.8268 530.508C35.6185 527.387 33.676 522.956 33.807 518.111C34.0907 508.966 41.7296 501.764 50.8744 502.048C56.0688 502.201 60.6303 504.732 63.5549 508.574L63.664 508.464L85.8821 531.948L62.289 554.014L62.1799 553.905C59.037 557.55 54.3228 559.819 49.1283 559.645C39.9835 559.383 32.803 551.722 33.0867 542.577Z" fill="#FF0000"/>
<path fill-rule="evenodd" clip-rule="evenodd" d="M13.8154 416.449L27.4562 369.241C29.2022 363.173 35.5752 359.659 41.6426 361.405L130.799 387.247C136.845 388.993 140.358 395.387 138.612 401.455L124.972 448.663C123.226 454.709 116.853 458.244 110.785 456.476L21.6288 430.635C15.5832 428.889 12.0693 422.494 13.8154 416.449Z" fill="white"/>
<path fill-rule="evenodd" clip-rule="evenodd" d="M61.3727 287.309L86.0571 244.837C89.2217 239.381 96.2713 237.504 101.706 240.69L181.936 287.44C187.392 290.605 189.247 297.654 186.082 303.111L161.42 345.583C158.233 351.039 151.206 352.894 145.749 349.729L65.5195 302.98C60.0631 299.815 58.208 292.765 61.3727 287.309Z" fill="white"/>
<path fill-rule="evenodd" clip-rule="evenodd" d="M140.097 174.974L174.144 139.573C178.509 135.034 185.799 134.903 190.317 139.268L257.189 203.762C261.729 208.127 261.86 215.416 257.495 219.978L223.447 255.379C219.082 259.896 211.793 260.049 207.253 255.662L140.402 191.19C135.862 186.803 135.732 179.514 140.097 174.974Z" fill="white"/>
<path fill-rule="evenodd" clip-rule="evenodd" d="M888.944 136.016L924.301 170.107C928.841 174.494 928.972 181.783 924.607 186.323L860.2 253.283C855.835 257.823 848.546 257.975 844.028 253.589L808.671 219.497C804.153 215.132 804 207.821 808.365 203.281L872.772 136.321C877.137 131.782 884.427 131.651 888.944 136.016Z" fill="white"/>
<path fill-rule="evenodd" clip-rule="evenodd" d="M980.633 241.868L1004.86 284.58C1007.98 290.058 1006.04 297.108 1000.56 300.207L919.871 346.149C914.393 349.27 907.365 347.328 904.244 341.85L880.018 299.116C876.897 293.638 878.839 286.61 884.318 283.489L965.006 237.547C970.484 234.448 977.512 236.368 980.633 241.868Z" fill="white"/>
<path fill-rule="evenodd" clip-rule="evenodd" d="M1039.91 366.032L1053.07 413.372C1054.77 419.461 1051.19 425.812 1045.13 427.492L955.708 452.439C949.641 454.141 943.29 450.54 941.609 444.473L928.427 397.133C926.746 391.066 930.326 384.715 936.393 383.013L1025.81 358.066C1031.88 356.364 1038.23 359.965 1039.91 366.032Z" fill="white"/>
<mask id="mask1_118_130" style="mask-type:luminance" maskUnits="userSpaceOnUse" x="949" y="489" width="118" height="77">
<path d="M949.117 489.629H1066.56V565.188H949.117V489.629Z" fill="white"/>
</mask>
<g mask="url(#mask1_118_130)">
<path fill-rule="evenodd" clip-rule="evenodd" d="M1065.58 501.546L1066.56 550.696C1066.69 557.004 1061.65 562.264 1055.34 562.395L962.54 564.272C956.254 564.403 950.994 559.339 950.863 553.032L949.859 503.903C949.75 497.595 954.792 492.335 961.077 492.205L1053.9 490.328C1060.19 490.197 1065.45 495.238 1065.58 501.546Z" fill="white"/>
</g>
<path fill-rule="evenodd" clip-rule="evenodd" d="M1034.19 514.532C1034.28 519.377 1032.29 523.786 1029.06 526.863C1032.42 529.831 1034.58 534.153 1034.69 538.998C1034.87 548.165 1027.6 555.738 1018.46 555.913C1013.26 556.022 1008.59 553.708 1005.47 550.02L1005.36 550.151L982.008 527.824L1004.44 504.58L1004.55 504.689C1007.52 500.891 1012.1 498.403 1017.3 498.294C1026.44 498.098 1034 505.365 1034.19 514.532Z" fill="#FF0000"/>
<path fill-rule="evenodd" clip-rule="evenodd" d="M128.988 275.261H95.5294L110.087 305.423H143.545L128.988 275.261Z" fill="#ED1B1C"/>
<path fill-rule="evenodd" clip-rule="evenodd" d="M45.724 398.705C47.7974 391.546 55.2616 387.421 62.4203 389.494C67.0255 390.826 70.3647 394.405 71.6088 398.705C71.1723 396.631 71.2377 394.427 71.8707 392.244C73.9441 385.086 81.4083 380.961 88.5452 383.034C95.7039 385.107 99.8071 392.594 97.7337 399.73C96.7515 403.201 94.4817 405.929 91.6226 407.631L107.228 412.149L104.892 420.246L89.2873 415.707C90.8151 418.675 91.2516 422.21 90.2476 425.659C88.196 432.818 80.7099 436.921 73.5731 434.869C66.4144 432.796 62.3112 425.31 64.3846 418.151C65.0175 415.968 66.1306 414.07 67.6147 412.542C64.2755 415.51 59.5394 416.754 54.9342 415.423C47.7755 413.349 43.6724 405.863 45.724 398.705Z" fill="black"/>
<path fill-rule="evenodd" clip-rule="evenodd" d="M202.648 217.795C204.656 215.722 206.009 213.255 206.708 210.636L214.303 217.97L220.196 211.837L212.601 204.525C215.176 203.718 217.599 202.255 219.607 200.182C225.958 193.591 225.761 183.093 219.17 176.742C215.416 173.119 210.418 171.635 205.638 172.224V172.049L173.359 172.551L174.057 204.874H174.232C173.817 209.698 175.498 214.63 179.23 218.253C185.821 224.605 196.319 224.408 202.648 217.795Z" fill="black"/>
<path fill-rule="evenodd" clip-rule="evenodd" d="M888.77 172.006C894.117 177.179 894.292 185.712 889.12 191.081C885.802 194.53 881.088 195.839 876.701 194.944C878.752 195.534 880.673 196.603 882.31 198.174C887.657 203.347 887.81 211.881 882.659 217.25C877.487 222.619 868.975 222.772 863.606 217.599C861.03 215.111 859.655 211.837 859.503 208.52L848.219 220.24L842.173 214.391L853.435 202.67C850.118 202.649 846.8 201.383 844.203 198.895C838.856 193.722 838.681 185.188 843.854 179.819C849.005 174.45 857.538 174.298 862.885 179.47C864.522 181.042 865.679 182.919 866.334 184.926C865.286 180.605 866.399 175.825 869.717 172.355C874.889 167.008 883.401 166.833 888.77 172.006Z" fill="black"/>
<path fill-rule="evenodd" clip-rule="evenodd" d="M950.71 307.628L967.538 278.666L934.167 276.069L917.339 305.031L950.71 307.628Z" fill="#ED1B1C"/>
<path fill-rule="evenodd" clip-rule="evenodd" d="M966.883 397.919C967.647 400.713 969.087 403.135 970.986 405.056L960.815 407.893L963.107 416.1L973.256 413.262C972.645 415.881 972.667 418.697 973.43 421.491C975.875 430.308 985.02 435.481 993.837 433.014C998.835 431.617 1002.65 428.06 1004.58 423.629L1004.73 423.717L1020.68 395.606L992.506 379.804L992.418 379.957C988.49 377.163 983.383 376.094 978.385 377.491C969.567 379.957 964.417 389.102 966.883 397.919Z" fill="black"/>
<path fill-rule="evenodd" clip-rule="evenodd" d="M246.538 84.1366L289.185 59.8668C294.663 56.7458 301.691 58.6882 304.79 64.1664L350.667 144.985C353.788 150.464 351.845 157.513 346.367 160.612L303.699 184.904C298.243 188.025 291.215 186.083 288.094 180.604L242.239 99.7853C239.118 94.2853 241.06 87.2576 246.538 84.1366Z" fill="white"/>
<path fill-rule="evenodd" clip-rule="evenodd" d="M272.882 105.591C277.073 103.19 281.896 102.841 286.152 104.238C287.156 99.8508 289.906 95.9005 294.118 93.4997C302.063 88.9818 312.168 91.7537 316.707 99.7199C319.261 104.26 319.479 109.476 317.711 113.972L317.886 114.015L309.418 145.204L278.317 136.539L278.36 136.365C273.602 135.579 269.215 132.72 266.662 128.202C262.144 120.236 264.916 110.109 272.882 105.591Z" fill="#FF0000"/>
<path fill-rule="evenodd" clip-rule="evenodd" d="M776.152 58.0118L818.58 82.7181C824.014 85.9045 825.891 92.9541 822.705 98.3886L776.042 178.749C772.878 184.206 765.828 186.083 760.394 182.896L717.965 158.19C712.531 155.025 710.654 147.976 713.84 142.519L760.503 62.1586C763.667 56.7023 770.717 54.8471 776.152 58.0118Z" fill="white"/>
<path fill-rule="evenodd" clip-rule="evenodd" d="M770.913 91.6013C775.082 94.0457 777.81 98.0179 778.749 102.405C783.048 101.073 787.85 101.466 792.018 103.911C799.919 108.516 802.604 118.665 797.999 126.587C795.401 131.083 790.993 133.899 786.235 134.641L786.278 134.794L755.09 143.153L746.927 111.877L747.102 111.833C745.378 107.316 745.64 102.099 748.259 97.6033C752.864 89.6807 762.991 86.9962 770.913 91.6013Z" fill="#FF0000"/>
<path fill-rule="evenodd" clip-rule="evenodd" d="M370.921 25.7322L418.195 12.5498C424.262 10.8692 430.614 14.4486 432.294 20.516L457.197 110.065C458.899 116.154 455.32 122.506 449.252 124.186L401.979 137.39C395.911 139.071 389.56 135.492 387.88 129.424L362.977 39.8532C361.275 33.7858 364.854 27.4346 370.921 25.7322Z" fill="white"/>
<path fill-rule="evenodd" clip-rule="evenodd" d="M400.211 44.3497C407.391 42.3636 414.812 46.5541 416.798 53.7346C418.086 58.3616 416.82 63.0758 413.83 66.3933C415.357 64.9528 417.256 63.8397 419.439 63.2286C426.619 61.2207 434.04 65.4111 436.048 72.5917C438.034 79.7722 433.844 87.2146 426.685 89.2007C423.215 90.1829 419.701 89.7027 416.754 88.1313L421.119 103.824L413.022 106.072L408.657 90.4011C406.955 93.2602 404.183 95.4864 400.735 96.4467C393.554 98.4546 386.133 94.2642 384.147 87.0837C382.139 79.9031 386.33 72.4607 393.51 70.4528C395.693 69.8635 397.897 69.8198 399.949 70.2782C395.693 68.9905 392.135 65.5857 390.87 60.9588C388.862 53.8001 393.052 46.3576 400.211 44.3497Z" fill="black"/>
<mask id="mask2_118_130" style="mask-type:luminance" maskUnits="userSpaceOnUse" x="489" y="0" width="85" height="120">
<path d="M489.891 0H573.7V119.013H489.891V0Z" fill="white"/>
</mask>
<g mask="url(#mask2_118_130)">
<path fill-rule="evenodd" clip-rule="evenodd" d="M506.412 1.11305L555.454 0.109082C561.761 -0.0218727 567.021 5.0416 567.152 11.3491L569.029 104.303C569.16 110.589 564.097 115.849 557.811 115.98L508.748 116.984C502.462 117.115 497.202 112.051 497.071 105.744L495.194 12.8114C495.063 6.50389 500.105 1.244 506.412 1.11305Z" fill="white"/>
</g>
<path fill-rule="evenodd" clip-rule="evenodd" d="M549.888 58.7759L532.494 30.163L514.313 58.3176L531.73 86.9306L549.888 58.7759Z" fill="#ED1B1C"/>
<path fill-rule="evenodd" clip-rule="evenodd" d="M643.694 11.8297L691.447 23.1134C697.58 24.5757 701.422 30.7741 699.959 36.907L678.636 127.395C677.196 133.528 670.997 137.369 664.864 135.907L617.11 124.623C610.978 123.182 607.158 116.962 608.599 110.829L629.922 20.3416C631.384 14.2087 637.561 10.3893 643.694 11.8297Z" fill="white"/>
<path fill-rule="evenodd" clip-rule="evenodd" d="M638.587 91.9937C641.402 92.6484 644.218 92.5611 646.815 91.8409L644.392 102.121L652.664 104.063L655.087 93.7834C657.095 95.5949 659.561 96.948 662.376 97.6028C671.259 99.7198 680.186 94.198 682.281 85.2715C683.481 80.208 682.215 75.1445 679.269 71.3251L679.422 71.2378L662.529 43.6725L635.116 60.7617L635.204 60.9144C630.861 63.0097 627.478 66.9819 626.277 72.0454C624.182 80.9501 629.682 89.8766 638.587 91.9937Z" fill="black"/>
<path fill-rule="evenodd" clip-rule="evenodd" d="M1053.83 640.551L1040.19 687.76C1038.45 693.827 1032.05 697.341 1026.01 695.595L936.851 669.732C930.783 667.986 927.269 661.591 929.015 655.545L942.656 608.337C944.424 602.27 950.797 598.756 956.843 600.502L1046.02 626.343C1052.07 628.111 1055.58 634.484 1053.83 640.551Z" fill="white"/>
<path fill-rule="evenodd" clip-rule="evenodd" d="M1006.26 769.67L981.593 812.164C978.428 817.62 971.379 819.476 965.944 816.311L885.693 769.561C880.258 766.397 878.403 759.347 881.568 753.891L906.23 711.419C909.395 705.962 916.444 704.085 921.879 707.272L1002.13 754C1007.56 757.186 1009.44 764.236 1006.26 769.67Z" fill="white"/>
<path fill-rule="evenodd" clip-rule="evenodd" d="M927.553 882.026L893.506 917.427C889.141 921.967 881.851 922.098 877.312 917.732L810.461 853.239C805.921 848.874 805.79 841.562 810.155 837.022L844.203 801.622C848.568 797.082 855.857 796.951 860.375 801.316L927.248 865.81C931.787 870.175 931.918 877.487 927.553 882.026Z" fill="white"/>
<path fill-rule="evenodd" clip-rule="evenodd" d="M178.684 920.963L143.349 886.872C138.809 882.507 138.678 875.217 143.043 870.678L207.428 803.696C211.793 799.156 219.082 799.025 223.622 803.412L258.957 837.481C263.497 841.868 263.628 849.158 259.263 853.697L194.878 920.658C190.513 925.219 183.223 925.35 178.684 920.963Z" fill="white"/>
<path fill-rule="evenodd" clip-rule="evenodd" d="M87.0177 815.132L62.7698 772.42C59.6706 766.92 61.5912 759.892 67.0694 756.771L147.779 710.851C153.257 707.73 160.285 709.672 163.384 715.15L187.632 757.863C190.753 763.363 188.811 770.39 183.333 773.511L102.623 819.432C97.1665 822.553 90.1387 820.61 87.0177 815.132Z" fill="white"/>
<path fill-rule="evenodd" clip-rule="evenodd" d="M27.7401 690.968L14.5576 643.607C12.8771 637.539 16.4564 631.188 22.5238 629.486L111.942 604.539C118.01 602.859 124.361 606.438 126.041 612.528L139.224 659.867C140.904 665.934 137.325 672.285 131.258 673.988L41.8392 698.934C35.7718 700.614 29.4206 697.035 27.7401 690.968Z" fill="white"/>
<path fill-rule="evenodd" clip-rule="evenodd" d="M938.662 781.739H972.099L957.563 751.555H924.105L938.662 781.739Z" fill="#ED1B1C"/>
<path fill-rule="evenodd" clip-rule="evenodd" d="M1021.9 658.295C1019.83 665.432 1012.37 669.557 1005.23 667.483C1000.62 666.152 997.285 662.573 996.041 658.295C996.456 660.368 996.412 662.573 995.779 664.755C993.706 671.914 986.242 676.039 979.105 673.966C971.946 671.892 967.843 664.406 969.895 657.247C970.899 653.799 973.147 651.049 976.028 649.368L960.401 644.851L962.736 636.753L978.363 641.271C976.835 638.325 976.399 634.789 977.381 631.341C979.454 624.182 986.918 620.057 994.077 622.131C1001.21 624.204 1005.34 631.69 1003.27 638.827C1002.63 641.009 1001.5 642.908 1000.04 644.436C1003.37 641.49 1008.11 640.246 1012.72 641.577C1019.85 643.65 1023.98 651.136 1021.9 658.295Z" fill="black"/>
<path fill-rule="evenodd" clip-rule="evenodd" d="M864.98 839.183C862.994 841.257 861.641 843.745 860.921 846.342L853.347 839.031L847.455 845.164L855.028 852.475C852.453 853.283 850.052 854.723 848.044 856.818C841.693 863.41 841.889 873.907 848.48 880.259C852.213 883.882 857.232 885.366 862.012 884.777V884.951L894.292 884.427L893.593 852.104H893.419C893.833 847.302 892.153 842.348 888.399 838.747C881.808 832.396 871.332 832.592 864.98 839.183Z" fill="black"/>
<path fill-rule="evenodd" clip-rule="evenodd" d="M178.88 884.995C173.511 879.822 173.358 871.288 178.509 865.919C181.848 862.449 186.562 861.162 190.949 862.056C188.898 861.467 186.977 860.398 185.34 858.804C179.993 853.654 179.818 845.098 184.991 839.751C190.142 834.382 198.676 834.207 204.023 839.38C206.62 841.868 207.995 845.164 208.148 848.481L219.431 836.761L225.477 842.588L214.193 854.33C217.533 854.352 220.85 855.596 223.425 858.106C228.794 863.257 228.947 871.812 223.796 877.159C218.624 882.528 210.112 882.703 204.743 877.53C203.106 875.959 201.971 874.06 201.295 872.052C202.364 876.396 201.251 881.175 197.933 884.624C192.761 889.993 184.227 890.146 178.88 884.995Z" fill="black"/>
<path fill-rule="evenodd" clip-rule="evenodd" d="M116.94 749.372L100.113 778.334L133.462 780.91L150.289 751.948L116.94 749.372Z" fill="#ED1B1C"/>
<path fill-rule="evenodd" clip-rule="evenodd" d="M100.767 659.081C100.003 656.287 98.5409 653.864 96.6639 651.944L106.813 649.106L104.543 640.9L94.3941 643.737C95.0052 641.096 94.9834 638.281 94.2195 635.509C91.7532 626.67 82.6303 621.519 73.8128 623.964C68.8148 625.36 64.9954 628.918 63.053 633.349L62.922 633.283L46.9677 661.372L75.1224 677.174L75.2097 677.043C79.1382 679.836 84.2453 680.906 89.2651 679.509C98.0607 677.043 103.233 667.898 100.767 659.081Z" fill="black"/>
<path fill-rule="evenodd" clip-rule="evenodd" d="M821.112 972.863L778.443 997.133C772.987 1000.25 765.959 998.312 762.838 992.834L716.983 912.014C713.862 906.514 715.805 899.487 721.261 896.366L763.93 872.096C769.408 868.975 776.435 870.917 779.535 876.396L825.411 957.215C828.532 962.693 826.59 969.742 821.112 972.863Z" fill="white"/>
<path fill-rule="evenodd" clip-rule="evenodd" d="M794.768 951.409C790.578 953.788 785.754 954.137 781.498 952.762C780.495 957.128 777.723 961.1 773.532 963.501C765.566 968.018 755.461 965.225 750.943 957.258C748.39 952.741 748.171 947.524 749.917 943.028L749.764 942.985L758.233 911.775L789.334 920.461L789.29 920.614C794.048 921.399 798.413 924.259 800.988 928.776C805.506 936.743 802.735 946.87 794.768 951.409Z" fill="#FF0000"/>
<path fill-rule="evenodd" clip-rule="evenodd" d="M291.476 998.988L249.07 974.26C243.614 971.095 241.758 964.046 244.923 958.59L291.607 878.229C294.772 872.794 301.8 870.917 307.256 874.082L349.663 898.81C355.119 901.975 356.974 909.024 353.81 914.481L307.147 994.841C303.982 1000.28 296.933 1002.15 291.476 998.988Z" fill="white"/>
<path fill-rule="evenodd" clip-rule="evenodd" d="M296.736 965.399C292.568 962.955 289.84 958.961 288.879 954.574C284.602 955.927 279.8 955.512 275.631 953.09C267.709 948.484 265.024 938.336 269.629 930.413C272.248 925.917 276.657 923.102 281.415 922.359L281.371 922.207L312.56 913.826L320.701 945.123L320.548 945.167C322.25 949.685 321.988 954.901 319.391 959.397C314.786 967.32 304.637 970.004 296.736 965.399Z" fill="#FF0000"/>
<path fill-rule="evenodd" clip-rule="evenodd" d="M696.729 1031.25L649.434 1044.45C643.388 1046.13 637.037 1042.55 635.335 1036.46L610.432 946.913C608.751 940.845 612.331 934.494 618.398 932.792L665.672 919.609C671.739 917.907 678.068 921.508 679.771 927.576L704.674 1017.12C706.354 1023.21 702.775 1029.57 696.729 1031.25Z" fill="white"/>
<path fill-rule="evenodd" clip-rule="evenodd" d="M667.418 1012.63C660.259 1014.64 652.839 1010.45 650.831 1003.27C649.543 998.639 650.831 993.903 653.821 990.586C652.293 992.048 650.372 993.161 648.19 993.772C641.031 995.758 633.611 991.568 631.603 984.387C629.616 977.229 633.807 969.786 640.966 967.778C644.414 966.818 647.95 967.298 650.874 968.848L646.531 953.177L654.628 950.907L658.972 966.6C660.696 963.741 663.468 961.514 666.916 960.532C674.075 958.546 681.517 962.737 683.503 969.917C685.511 977.098 681.321 984.54 674.14 986.526C671.958 987.137 669.753 987.181 667.68 986.723C671.958 988.01 675.493 991.393 676.781 996.02C678.789 1003.2 674.598 1010.64 667.418 1012.63Z" fill="black"/>
<mask id="mask3_118_130" style="mask-type:luminance" maskUnits="userSpaceOnUse" x="495" y="934" width="79" height="123">
<path d="M495.478 934.756H573.7V1057H495.478V934.756Z" fill="white"/>
</mask>
<g mask="url(#mask3_118_130)">
<path fill-rule="evenodd" clip-rule="evenodd" d="M561.238 1055.89L512.175 1056.87C505.889 1057 500.629 1051.96 500.498 1045.65L498.621 952.697C498.49 946.39 503.532 941.13 509.839 940.999L558.903 940.017C565.188 939.886 570.448 944.927 570.579 951.235L572.456 1044.19C572.587 1050.5 567.545 1055.76 561.238 1055.89Z" fill="white"/>
</g>
<path fill-rule="evenodd" clip-rule="evenodd" d="M423.957 1045.17L376.181 1033.87C370.048 1032.42 366.229 1026.23 367.669 1020.07L389.014 929.606C390.455 923.473 396.653 919.632 402.786 921.072L450.54 932.377C456.673 933.818 460.492 940.016 459.052 946.171L437.707 1036.64C436.266 1042.77 430.068 1046.61 423.957 1045.17Z" fill="white"/>
<path fill-rule="evenodd" clip-rule="evenodd" d="M429.064 965.006C426.248 964.33 423.433 964.439 420.836 965.159L423.258 954.879L414.986 952.937L412.564 963.195C410.556 961.383 408.09 960.052 405.274 959.375C396.37 957.28 387.465 962.802 385.348 971.707C384.169 976.77 385.413 981.855 388.36 985.675L388.229 985.762L405.121 1013.31L432.534 996.216L432.447 996.085C436.79 993.99 440.173 990.018 441.373 984.954C443.469 976.05 437.969 967.101 429.064 965.006Z" fill="black"/>
</svg>
