<?xml version="1.0" encoding="UTF-8" standalone="no"?><!DOCTYPE svg PUBLIC "-//W3C//DTD SVG 1.1//EN" "http://www.w3.org/Graphics/SVG/1.1/DTD/svg11.dtd"><svg width="100%" height="100%" viewBox="0 0 630 880" version="1.1" xmlns="http://www.w3.org/2000/svg" xmlns:xlink="http://www.w3.org/1999/xlink" xml:space="preserve" xmlns:serif="http://www.serif.com/" style="fill-rule:evenodd;clip-rule:evenodd;stroke-linejoin:round;stroke-miterlimit:2;"><path d="M619.688,62.479c-0,-26.533 -21.542,-48.074 -48.075,-48.074l-513.226,-0c-26.533,-0 -48.075,21.541 -48.075,48.074l0.001,755.042c-0,26.533 21.541,48.074 48.074,48.074l513.226,0c26.533,0 48.075,-21.541 48.075,-48.074l-0,-755.042Z" style="fill:#fff;"/><g id="J"><path d="M54.862,148.859c-0,7.499 -0,10.633 -0,9.404c-0,7.376 1.685,13.276 5.055,17.702c4.045,5.285 10.111,7.928 18.2,7.928c6.875,0 12.403,-2.274 16.582,-6.822c3.775,-4.18 5.662,-9.404 5.662,-15.673l0,-91.274l-18.402,-0l0,-21.943l59.25,0l0,21.943l-17.593,-0l0,91.274c0,12.415 -4.111,22.803 -12.335,31.162c-8.628,8.728 -19.683,13.092 -33.164,13.092c-13.616,-0 -24.806,-4.303 -33.568,-12.908c-8.763,-8.605 -13.077,-19.115 -12.942,-31.531l-0,-12.354l23.255,0Z" style="fill-rule:nonzero;"/><path d="M575.138,731.141c0,-7.499 0,-10.633 0,-9.404c0,-7.376 -1.685,-13.276 -5.055,-17.702c-4.045,-5.285 -10.111,-7.928 -18.2,-7.928c-6.875,-0 -12.403,2.274 -16.582,6.822c-3.775,4.18 -5.662,9.404 -5.662,15.673l-0,91.274l18.402,0l-0,21.943l-59.25,-0l-0,-21.943l17.593,0l-0,-91.274c-0,-12.415 4.111,-22.803 12.335,-31.162c8.628,-8.728 19.683,-13.092 33.164,-13.092c13.616,0 24.806,4.303 33.568,12.908c8.763,8.605 13.077,19.115 12.942,31.531l0,12.354l-23.255,-0Z" style="fill-rule:nonzero;"/></g><g><path d="M315,567.394l84.509,0l-1.3,-7.801c-53.924,-0.078 -80.609,-31.885 -80.609,-85.809c43.63,72.778 101.55,27.121 101.411,-2.6c-0.051,-67.337 -81.404,-64.461 -104.011,-153.417c-22.607,88.956 -103.96,86.08 -104.011,153.417c-0.139,29.721 57.781,75.378 101.411,2.6c-0,53.924 -26.685,85.731 -80.609,85.809l-1.3,7.801l84.509,0"/><path d="M86.408,324.694l34.121,0l-0.525,-3.149c-21.772,-0.032 -32.546,-12.874 -32.546,-34.646c17.616,29.384 41.001,10.95 40.945,-1.05c-0.021,-27.188 -32.867,-26.027 -41.995,-61.943c-9.127,35.916 -41.974,34.755 -41.995,61.943c-0.056,12 23.329,30.434 40.945,1.05c0,21.772 -10.774,34.614 -32.546,34.646l-0.525,3.149l34.121,0"/><path d="M543.592,555.306l-34.121,-0l0.525,3.149c21.772,0.032 32.546,12.874 32.546,34.646c-17.616,-29.384 -41.001,-10.95 -40.945,1.05c0.021,27.188 32.867,26.027 41.995,61.943c9.127,-35.916 41.974,-34.755 41.995,-61.943c0.056,-12 -23.329,-30.434 -40.945,-1.05c-0,-21.772 10.774,-34.614 32.546,-34.646l0.525,-3.149l-34.121,-0"/></g></svg>