<?xml version="1.0" encoding="UTF-8" standalone="no"?><!DOCTYPE svg PUBLIC "-//W3C//DTD SVG 1.1//EN" "http://www.w3.org/Graphics/SVG/1.1/DTD/svg11.dtd"><svg width="100%" height="100%" viewBox="0 0 630 880" version="1.1" xmlns="http://www.w3.org/2000/svg" xmlns:xlink="http://www.w3.org/1999/xlink" xml:space="preserve" xmlns:serif="http://www.serif.com/" style="fill-rule:evenodd;clip-rule:evenodd;stroke-linejoin:round;stroke-miterlimit:2;"><path d="M619.688,62.479c-0,-26.533 -21.542,-48.074 -48.075,-48.074l-513.226,-0c-26.533,-0 -48.075,21.541 -48.075,48.074l0.001,755.042c-0,26.533 21.541,48.074 48.074,48.074l513.226,0c26.533,0 48.075,-21.541 48.075,-48.074l-0,-755.042Z" style="fill:#fff;"/><g id="K"><path d="M30.798,186.106l15.571,0l-0,-120.961l-15.571,0l-0,-16.964l47.117,0l-0,16.964l-13.144,0l-0,58.821l41.458,-58.821l-15.979,0l0,-16.964l51.768,0l0,16.964l-14.879,0l-33.653,47.755l34.377,73.206l14.155,0l0,16.964l-51.768,0l0,-16.964l16.715,0l-26.023,-55.415l-16.171,22.945l-0,32.47l13.144,0l-0,16.964l-47.117,0l-0,-16.964Z" style="fill-rule:nonzero;"/><path d="M599.202,693.894l-15.571,-0l0,120.961l15.571,-0l0,16.964l-47.117,-0l0,-16.964l13.144,-0l0,-58.821l-41.458,58.821l15.979,-0l-0,16.964l-51.768,-0l-0,-16.964l14.879,-0l33.653,-47.755l-34.377,-73.206l-14.155,-0l-0,-16.964l51.768,-0l-0,16.964l-16.715,-0l26.023,55.415l16.171,-22.945l0,-32.47l-13.144,-0l0,-16.964l47.117,-0l0,16.964Z" style="fill-rule:nonzero;"/></g><g><path d="M315,358.901c31.981,-52.768 95.942,-52.768 127.923,-26.384c31.982,26.384 31.982,79.153 0,131.921c-22.387,39.576 -79.952,79.153 -127.923,105.537c-47.972,-26.384 -105.537,-65.961 -127.924,-105.537c-31.98,-52.768 -31.98,-105.537 0,-131.921c31.981,-26.384 95.943,-26.384 127.924,26.384Z" style="fill:#f00;"/><path d="M86.408,253.391c7.991,-13.186 23.974,-13.186 31.965,-6.593c7.991,6.593 7.991,19.778 -0,32.964c-5.594,9.889 -19.978,19.778 -31.965,26.371c-11.987,-6.593 -26.371,-16.482 -31.965,-26.371c-7.991,-13.186 -7.991,-26.371 -0,-32.964c7.991,-6.593 23.974,-6.593 31.965,6.593Z" style="fill:#f00;"/><path d="M543.592,626.609c-7.991,13.186 -23.974,13.186 -31.965,6.593c-7.991,-6.593 -7.991,-19.778 0,-32.964c5.594,-9.889 19.978,-19.778 31.965,-26.371c11.987,6.593 26.371,16.482 31.965,26.371c7.991,13.186 7.991,26.371 0,32.964c-7.991,6.593 -23.974,6.593 -31.965,-6.593Z" style="fill:#f00;"/></g></svg>