<?xml version="1.0" encoding="UTF-8" standalone="no"?><!DOCTYPE svg PUBLIC "-//W3C//DTD SVG 1.1//EN" "http://www.w3.org/Graphics/SVG/1.1/DTD/svg11.dtd"><svg width="100%" height="100%" viewBox="0 0 630 880" version="1.1" xmlns="http://www.w3.org/2000/svg" xmlns:xlink="http://www.w3.org/1999/xlink" xml:space="preserve" xmlns:serif="http://www.serif.com/" style="fill-rule:evenodd;clip-rule:evenodd;stroke-linejoin:round;stroke-miterlimit:2;"><path d="M619.688,62.479c-0,-26.533 -21.542,-48.074 -48.075,-48.074l-513.226,-0c-26.533,-0 -48.075,21.541 -48.075,48.074l0.001,755.042c-0,26.533 21.541,48.074 48.074,48.074l513.226,0c26.533,0 48.075,-21.541 48.075,-48.074l-0,-755.042Z" style="fill:#fff;"/><g id="K"><path d="M30.798,186.106l15.571,0l-0,-120.961l-15.571,0l-0,-16.964l47.117,0l-0,16.964l-13.144,0l-0,58.821l41.458,-58.821l-15.979,0l0,-16.964l51.768,0l0,16.964l-14.879,0l-33.653,47.755l34.377,73.206l14.155,0l0,16.964l-51.768,0l0,-16.964l16.715,0l-26.023,-55.415l-16.171,22.945l-0,32.47l13.144,0l-0,16.964l-47.117,0l-0,-16.964Z" style="fill-rule:nonzero;"/><path d="M599.202,693.894l-15.571,-0l0,120.961l15.571,-0l0,16.964l-47.117,-0l0,-16.964l13.144,-0l0,-58.821l-41.458,58.821l15.979,-0l-0,16.964l-51.768,-0l-0,-16.964l14.879,-0l33.653,-47.755l-34.377,-73.206l-14.155,-0l-0,-16.964l51.768,-0l-0,16.964l-16.715,-0l26.023,55.415l16.171,-22.945l0,-32.47l-13.144,-0l0,-16.964l47.117,-0l0,16.964Z" style="fill-rule:nonzero;"/></g><g><path d="M315,569.975c11.354,-39.833 40.19,-99.401 69.811,-127.394c-29.621,-27.994 -58.457,-87.562 -69.811,-127.395c-11.354,39.833 -40.19,99.401 -69.811,127.395c29.621,27.993 58.457,87.561 69.811,127.394" style="fill:#f00;"/><path d="M86.408,324.694c4.491,-15.757 15.898,-39.32 27.616,-50.394c-11.718,-11.074 -23.125,-34.637 -27.616,-50.394c-4.491,15.757 -15.898,39.32 -27.616,50.394c11.718,11.074 23.125,34.637 27.616,50.394" style="fill:#f00;"/><path d="M543.592,656.094c4.491,-15.757 15.898,-39.32 27.616,-50.394c-11.718,-11.074 -23.125,-34.637 -27.616,-50.394c-4.491,15.757 -15.898,39.32 -27.616,50.394c11.718,11.074 23.125,34.637 27.616,50.394" style="fill:#f00;"/></g></svg>