<?xml version="1.0" encoding="UTF-8" standalone="no"?><!DOCTYPE svg PUBLIC "-//W3C//DTD SVG 1.1//EN" "http://www.w3.org/Graphics/SVG/1.1/DTD/svg11.dtd"><svg width="100%" height="100%" viewBox="0 0 630 880" version="1.1" xmlns="http://www.w3.org/2000/svg" xmlns:xlink="http://www.w3.org/1999/xlink" xml:space="preserve" xmlns:serif="http://www.serif.com/" style="fill-rule:evenodd;clip-rule:evenodd;stroke-linejoin:round;stroke-miterlimit:2;"><path d="M619.688,62.479c-0,-26.533 -21.542,-48.074 -48.075,-48.074l-513.226,-0c-26.533,-0 -48.075,21.541 -48.075,48.074l0.001,755.042c-0,26.533 21.541,48.074 48.074,48.074l513.226,0c26.533,0 48.075,-21.541 48.075,-48.074l-0,-755.042Z" style="fill:#fff;"/><g id="Q"><path d="M62.748,137.427c8.224,0.86 16.448,4.302 24.671,10.326c5.123,3.687 11.661,9.588 19.615,17.701l0,-82.792c0,-4.425 -2.325,-8.42 -6.976,-11.985c-4.651,-3.565 -9.673,-5.347 -15.066,-5.347c-5.392,-0 -10.448,1.782 -15.166,5.347c-4.718,3.565 -7.078,7.56 -7.078,11.985l0,54.765Zm34.378,45.686l-26.087,-23.513c-2.157,-1.992 -4.92,-3.237 -8.291,-3.734l0,13.437c0,4.355 2.36,8.336 7.078,11.944c4.718,3.608 9.774,5.412 15.166,5.412c4.18,0 8.224,-1.182 12.134,-3.546Zm44.69,19.588c-7.954,0 -13.683,-0.307 -17.189,-0.922c-4.044,-0.86 -7.954,-2.581 -11.728,-5.163c-8.493,6.27 -17.796,9.404 -27.907,9.404c-10.919,0 -20.693,-3.565 -29.321,-10.694c-9.033,-7.376 -13.549,-15.981 -13.549,-25.815l0,-13.645l-11.122,-0l-0,-17.702c0.404,-0.123 4.112,-0.368 11.122,-0.737l0,-54.765c0,-9.957 4.516,-18.623 13.549,-25.999c8.628,-7.13 18.402,-10.694 29.321,-10.694c10.92,-0 20.795,3.626 29.626,10.879c8.83,7.252 13.245,15.857 13.245,25.814l-0,86.849c-0,4.179 -0.944,8.297 -2.831,12.354c1.887,1.106 3.64,1.844 5.258,2.213l11.526,-0l0,18.623Z" style="fill-rule:nonzero;"/><path d="M567.252,742.573c-8.224,-0.86 -16.448,-4.302 -24.671,-10.326c-5.123,-3.687 -11.661,-9.588 -19.615,-17.701l-0,82.792c-0,4.425 2.325,8.42 6.976,11.985c4.651,3.565 9.673,5.347 15.066,5.347c5.392,0 10.448,-1.782 15.166,-5.347c4.718,-3.565 7.078,-7.56 7.078,-11.985l-0,-54.765Zm-34.378,-45.686l26.087,23.513c2.157,1.992 4.92,3.237 8.291,3.734l-0,-13.437c-0,-4.355 -2.36,-8.336 -7.078,-11.944c-4.718,-3.608 -9.774,-5.412 -15.166,-5.412c-4.18,-0 -8.224,1.182 -12.134,3.546Zm-44.69,-19.588c7.954,-0 13.683,0.307 17.189,0.922c4.044,0.86 7.954,2.581 11.728,5.163c8.493,-6.27 17.796,-9.404 27.907,-9.404c10.919,-0 20.693,3.565 29.321,10.694c9.033,7.376 13.549,15.981 13.549,25.815l-0,13.645l11.122,0l0,17.702c-0.404,0.123 -4.112,0.368 -11.122,0.737l-0,54.765c-0,9.957 -4.516,18.623 -13.549,25.999c-8.628,7.13 -18.402,10.694 -29.321,10.694c-10.92,0 -20.795,-3.626 -29.626,-10.879c-8.83,-7.252 -13.245,-15.857 -13.245,-25.814l0,-86.849c0,-4.179 0.944,-8.297 2.831,-12.354c-1.887,-1.106 -3.64,-1.844 -5.258,-2.213l-11.526,0l-0,-18.623Z" style="fill-rule:nonzero;"/></g><g><path d="M315,358.901c31.981,-52.768 95.942,-52.768 127.923,-26.384c31.982,26.384 31.982,79.153 0,131.921c-22.387,39.576 -79.952,79.153 -127.923,105.537c-47.972,-26.384 -105.537,-65.961 -127.924,-105.537c-31.98,-52.768 -31.98,-105.537 0,-131.921c31.981,-26.384 95.943,-26.384 127.924,26.384Z" style="fill:#f00;"/><path d="M86.408,253.391c7.991,-13.186 23.974,-13.186 31.965,-6.593c7.991,6.593 7.991,19.778 -0,32.964c-5.594,9.889 -19.978,19.778 -31.965,26.371c-11.987,-6.593 -26.371,-16.482 -31.965,-26.371c-7.991,-13.186 -7.991,-26.371 -0,-32.964c7.991,-6.593 23.974,-6.593 31.965,6.593Z" style="fill:#f00;"/><path d="M543.592,626.609c-7.991,13.186 -23.974,13.186 -31.965,6.593c-7.991,-6.593 -7.991,-19.778 0,-32.964c5.594,-9.889 19.978,-19.778 31.965,-26.371c11.987,6.593 26.371,16.482 31.965,26.371c7.991,13.186 7.991,26.371 0,32.964c-7.991,6.593 -23.974,6.593 -31.965,-6.593Z" style="fill:#f00;"/></g></svg>